<svg width="34" height="41" viewBox="0 0 34 41" fill="none" xmlns="http://www.w3.org/2000/svg">
<path d="M2.01087 10.3402L3.67672 8.67435L5.34257 10.3402L4.50961 11.1732C4.04982 11.633 4.04966 12.3791 4.50961 12.839L6.371 14.7004C4.23876 16.6926 2.99838 19.5024 2.99838 22.4536V39.0234C2.99838 39.674 3.525 40.2014 4.17554 40.2014H32.4462C33.0968 40.2014 33.6242 39.674 33.6242 39.0234V34.3116C33.6242 33.6611 33.0968 33.1337 32.4462 33.1337H28.1805L24.2301 29.1834C23.9383 28.8915 23.6075 28.6614 23.2545 28.4932L30.8309 20.9168C31.2909 20.4568 31.2909 19.711 30.8309 19.251C30.3709 18.7909 29.6251 18.7909 29.165 19.251L15.2824 33.1336H10.0653V22.4536C10.0653 21.3627 10.5529 20.366 11.3754 19.7046L14.23 22.5593C14.69 23.0192 15.4358 23.0194 15.8959 22.5593L16.7288 21.7263L19.2276 24.2251C19.6873 24.6848 20.4336 24.6851 20.8935 24.2251L24.2252 20.8933C24.6852 20.4333 24.6852 19.6875 24.2252 19.2275L21.7264 16.7287L22.5594 15.8957C23.0191 15.4361 23.0194 14.6898 22.5594 14.2299L12.8389 4.50961C12.379 4.04958 11.6331 4.04958 11.1731 4.50961L10.3401 5.34257L8.67427 3.67672L10.3401 2.01087C10.8002 1.55084 10.8002 0.805047 10.3401 0.34502C9.88018 -0.115007 9.1343 -0.115007 8.67427 0.34502C7.68857 1.33073 1.18631 7.83299 0.34502 8.67427C-0.115007 9.1343 -0.115007 9.8801 0.34502 10.3401C0.804969 10.8002 1.55084 10.8002 2.01087 10.3402ZM5.35357 22.4536C5.35357 20.1307 6.34186 17.9197 8.0374 16.3667L9.7078 18.0371C8.46201 19.1417 7.71032 20.7509 7.71032 22.4536V33.1336H5.35365L5.35357 22.4536ZM15.7703 35.4895C16.0828 35.4895 16.3823 35.3654 16.6032 35.1445C16.6032 35.1445 20.8978 30.8499 20.8985 30.8492C21.3579 30.3899 22.1051 30.3899 22.5644 30.8492L26.8597 35.1445C27.0805 35.3654 27.3802 35.4895 27.6926 35.4895H31.2683V37.8454H5.35349V35.4895H15.7703ZM21.7264 20.0605L20.0605 21.7264L18.3946 20.0605L20.0605 18.3946L21.7264 20.0605ZM12.0061 7.00842L20.0605 15.0629L15.0629 20.0605L7.00842 12.0061L12.0061 7.00842ZM7.00842 5.34257L8.67427 7.00842L7.00842 8.67427L5.34257 7.00842L7.00842 5.34257Z" fill="#FE2937"/>
<path d="M21.8448 35.4894C22.4954 35.4894 23.0228 34.9621 23.0228 34.3115C23.0228 33.6609 22.4954 33.1335 21.8448 33.1335C21.1943 33.1335 20.6669 33.6609 20.6669 34.3115C20.6669 34.9621 21.1943 35.4894 21.8448 35.4894Z" fill="#FE2937"/>
</svg>
