<svg width="41" height="41" viewBox="0 0 41 41" fill="none" xmlns="http://www.w3.org/2000/svg">
<path d="M36.635 20.8039H32.2548V4.68276C32.2548 2.10067 30.1526 0 27.5686 0H12.5217C9.93779 0 7.83559 2.10067 7.83559 4.68276V20.8039H3.14152C1.46814 20.8039 0 22.4173 0 24.2564V38.9155C0 39.5643 0.526084 40.09 1.17543 40.09H38.9146C39.564 40.09 40.09 39.5643 40.09 38.9155V24.2564C40.09 22.3528 38.5399 20.8039 36.635 20.8039ZM2.35056 24.2564C2.35056 23.5811 2.90692 23.1529 3.14152 23.1529H7.83559V37.741H2.35056V24.2564ZM10.1861 4.68276C10.1861 3.39599 11.234 2.34903 12.5217 2.34903H27.5686C28.8563 2.34903 29.9039 3.39599 29.9039 4.68276V37.741H24.7305V29.8547C24.7305 29.2062 24.2044 28.6801 23.5551 28.6801H16.5352C15.8859 28.6801 15.3598 29.2062 15.3598 29.8547V37.741H10.1865L10.1861 4.68276ZM22.38 37.741H17.7104V31.0292H22.38V37.741ZM37.7395 37.741H32.2548V23.1529H36.635C37.244 23.1529 37.7395 23.6481 37.7395 24.2564V37.741Z" fill="#FE2937"/>
<path d="M18.1669 8.81245H18.8052V9.45079C18.8052 10.1356 19.3602 10.6907 20.0449 10.6907C20.7296 10.6907 21.2849 10.1356 21.2849 9.45079V8.81245H21.9231C22.6078 8.81245 23.1631 8.25741 23.1631 7.57256C23.1631 6.88804 22.6078 6.33268 21.9231 6.33268H21.2849V5.69433C21.2849 5.00981 20.7296 4.45445 20.0449 4.45445C19.3602 4.45445 18.8052 5.00981 18.8052 5.69433V6.33268H18.1669C17.4819 6.33268 16.9269 6.88804 16.9269 7.57256C16.9269 8.25741 17.4819 8.81245 18.1669 8.81245Z" fill="#FE2937"/>
<path d="M22.2722 15.1451C22.2722 15.6372 22.736 16.036 23.3084 16.036H25.6905C26.2629 16.036 26.7267 15.6372 26.7267 15.1451C26.7267 14.6533 26.2629 14.2542 25.6905 14.2542H23.3084C22.7363 14.2542 22.2722 14.6533 22.2722 15.1451Z" fill="#FE2937"/>
<path d="M15.2902 16.036H17.6727C18.2449 16.036 18.7087 15.6372 18.7087 15.1451C18.7087 14.6533 18.2449 14.2542 17.6727 14.2542H15.2902C14.718 14.2542 14.2542 14.6533 14.2542 15.1451C14.2542 15.6372 14.718 16.036 15.2902 16.036Z" fill="#FE2937"/>
<path d="M25.6905 24.054H23.3084C22.736 24.054 22.2722 24.4531 22.2722 24.9449C22.2722 25.437 22.736 25.8358 23.3084 25.8358H25.6905C26.2629 25.8358 26.7267 25.437 26.7267 24.9449C26.7267 24.4531 26.2629 24.054 25.6905 24.054Z" fill="#FE2937"/>
<path d="M17.6725 25.8358C18.2447 25.8358 18.7087 25.437 18.7087 24.9449C18.7087 24.4531 18.2447 24.054 17.6725 24.054H15.2904C14.718 24.054 14.2542 24.4531 14.2542 24.9449C14.2542 25.437 14.718 25.8358 15.2904 25.8358H17.6725Z" fill="#FE2937"/>
<path d="M25.6905 18.7087H23.3084C22.736 18.7087 22.2722 19.3073 22.2722 20.045C22.2722 20.7831 22.736 21.3814 23.3084 21.3814H25.6905C26.2629 21.3814 26.7267 20.7831 26.7267 20.045C26.7267 19.3073 26.2629 18.7087 25.6905 18.7087Z" fill="#FE2937"/>
<path d="M15.2902 21.3814H17.6727C18.2449 21.3814 18.7087 20.7831 18.7087 20.045C18.7087 19.3073 18.2449 18.7087 17.6727 18.7087H15.2902C14.718 18.7087 14.2542 19.3073 14.2542 20.045C14.2542 20.7831 14.718 21.3814 15.2902 21.3814Z" fill="#FE2937"/>
</svg>
