<svg width="36" height="41" viewBox="0 0 36 41" fill="none" xmlns="http://www.w3.org/2000/svg">
<path d="M17.6666 0C7.18355 0 0 8.29796 0 17.6666V34.3125C0 36.2607 1.58505 37.8458 3.53332 37.8458H9.54067C9.46309 38.2264 9.42219 38.6203 9.42219 39.0236C9.42219 39.674 9.94951 40.2013 10.6 40.2013H24.8118C25.4622 40.2013 25.9895 39.674 25.9895 39.0236C25.9895 38.6203 25.9486 38.2264 25.871 37.8458H31.8784C33.8267 37.8458 35.4117 36.2607 35.4117 34.3125V17.6666C35.4117 7.95492 27.4934 0 17.6666 0ZM28.3451 17.6666C28.3451 19.2733 27.9914 20.8238 27.3122 22.2393C26.7546 21.6803 26.0114 21.3067 25.1841 21.2196C25.7097 20.1196 25.9895 18.9082 25.9895 17.6666C25.9895 13.1206 22.2558 9.42219 17.6666 9.42219C13.1206 9.42219 9.42219 13.1206 9.42219 17.6666C9.42219 18.9083 9.70202 20.1196 10.2276 21.2196C9.39989 21.3067 8.65648 21.6806 8.09884 22.24C7.09137 20.1446 6.80753 17.7708 7.30526 15.3774C8.25603 10.8058 12.3841 7.06146 17.6666 7.07049C23.6106 7.08069 28.3451 11.8663 28.3451 17.6666ZM9.42219 25.911V24.7332C9.42219 24.0838 9.95054 23.5476 10.6 23.5476C11.1351 23.5476 23.553 23.5476 24.8118 23.5476C25.4612 23.5476 25.9895 24.0838 25.9895 24.7332V25.911C24.0226 25.911 11.3836 25.911 9.42219 25.911ZM18.9229 28.2666V33.1347H16.4888V28.2666H18.9229ZM11.7777 17.6666C11.7777 14.4195 14.4195 11.7777 17.6666 11.7777C20.957 11.7777 23.634 14.4195 23.634 17.6666C23.634 18.9479 23.2184 20.1844 22.4557 21.1999H12.956C12.1933 20.1844 11.7777 18.9479 11.7777 17.6666ZM10.6032 35.4902H3.53332C2.8839 35.4902 2.35555 34.9619 2.35555 34.3125V17.6666C2.35555 10.2811 7.66032 3.05491 16.4888 2.40643V4.76606C10.5714 5.2809 6.08116 9.69472 4.9991 14.8978C4.24163 18.5403 4.97617 22.1527 7.06664 25.1166V27.0888C7.06664 27.7392 7.59397 28.2666 8.24441 28.2666H14.1333V33.2532C12.6991 33.5454 11.4531 34.3607 10.6032 35.4902ZM11.9795 37.8458C12.4656 36.4748 13.7755 35.4902 15.3111 35.4902H20.1007C21.6362 35.4902 22.9461 36.4748 23.4322 37.8458H11.9795ZM33.0562 34.3125C33.0562 34.9619 32.5278 35.4902 31.8784 35.4902H24.8085C23.9587 34.3607 22.7126 33.5455 21.2784 33.2532V28.2666H27.1673C27.8177 28.2666 28.3451 27.7392 28.3451 27.0888V25.1162C29.8872 22.9284 30.7006 20.3617 30.7006 17.6666C30.7006 10.9479 25.529 5.37214 18.8444 4.76896V2.40737C26.9823 3.01714 33.0562 9.82404 33.0562 17.6666V34.3125Z" fill="#FE2937"/>
</svg>
