<svg width="33" height="41" viewBox="0 0 33 41" fill="none" xmlns="http://www.w3.org/2000/svg">
<path d="M32.072 23.3208C32.072 20.5124 29.8086 18.2276 27.0263 18.2276C24.2443 18.2276 21.9807 20.5124 21.9807 23.3208C21.9807 25.7368 23.6564 27.7638 25.8957 28.2837V30.656C25.8957 34.5628 22.7593 37.741 18.9041 37.741C17.1499 37.741 15.4237 36.8161 14.0431 35.1369C12.9088 33.7568 12.1634 32.0119 11.9653 30.3269C12.5636 30.0577 13.0709 29.6029 13.414 29.0016L13.5071 28.8383C13.5104 28.8325 13.5138 28.8266 13.5171 28.8205L15.2152 25.7231C18.9114 24.2883 21.4843 21.1336 21.4843 17.4807V3.74865C21.4843 2.60014 20.4642 1.66573 19.2106 1.66573H15.9057V1.17451C15.9057 0.525778 15.3807 0 14.7335 0C14.0861 0 13.5614 0.525778 13.5614 1.17451V4.50566C13.5614 5.1544 14.0861 5.68018 14.7335 5.68018C15.3807 5.68018 15.9057 5.1544 15.9057 4.50566V4.01475H19.14V17.4807C19.14 19.2226 18.2933 20.88 16.7561 22.1478C15.9737 22.7929 15.0644 23.2954 14.0745 23.6423C14.0361 23.6536 13.9982 23.6667 13.9607 23.6817C12.953 24.0206 11.8645 24.1986 10.7422 24.1986C9.5105 24.1986 8.32035 23.9833 7.23277 23.5777C7.21415 23.5701 7.19522 23.5637 7.1763 23.5569C6.27674 23.215 5.44861 22.7418 4.72824 22.1478C3.19103 20.88 2.34428 19.2226 2.34428 17.4807V4.01475H5.57865V4.50566C5.57865 5.1544 6.10367 5.68018 6.75079 5.68018C7.39821 5.68018 7.92292 5.1544 7.92292 4.50566V1.17451C7.92292 0.525778 7.39821 0 6.75079 0C6.10367 0 5.57865 0.525778 5.57865 1.17451V1.66573H2.27377C1.02013 1.66573 0 2.60014 0 3.74865V17.4807C0 21.0385 2.44073 24.1237 5.98249 25.6074L7.91438 29.0016C8.3054 29.6867 8.90886 30.1828 9.61734 30.4294C9.83406 32.6242 10.7605 34.8387 12.2336 36.6304C14.0678 38.8614 16.4365 40.09 18.9038 40.09C24.0517 40.09 28.24 35.8581 28.24 30.6563V28.2645C30.4378 27.7145 32.072 25.7072 32.072 23.3208ZM10.7422 26.5477C11.2122 26.5477 11.6756 26.522 12.1301 26.4721L11.4674 27.6809L11.3789 27.8353C11.1625 28.2149 10.8072 28.2559 10.6643 28.2559C10.5215 28.2559 10.1662 28.2149 9.94975 27.8357L9.16039 26.4492C9.67686 26.5137 10.2049 26.5477 10.7422 26.5477ZM27.0263 26.0653C25.5371 26.0653 24.3249 24.8342 24.3249 23.3208C24.3249 21.8077 25.5371 20.5766 27.0263 20.5766C28.5159 20.5766 29.7278 21.8077 29.7278 23.3208C29.7278 24.8342 28.5159 26.0653 27.0263 26.0653Z" fill="#FE2937"/>
</svg>
