<svg width="41" height="41" viewBox="0 0 41 41" fill="none" xmlns="http://www.w3.org/2000/svg">
<path d="M35.7111 20.054H35.3888C33.6145 13.4395 27.6805 8.51428 20.5804 8.2775C19.1921 7.87965 18.2304 6.49819 18.2304 4.88065C18.2304 3.4847 19.3633 2.34895 20.7558 2.34895C21.7402 2.34895 22.5412 3.15216 22.5412 4.13938C22.5412 4.78802 23.067 5.31389 23.7157 5.31389C24.3643 5.31389 24.8902 4.78802 24.8902 4.13938C24.8902 1.85698 23.0355 0 20.7558 0C18.068 0 15.8814 2.18945 15.8814 4.88073C15.8814 6.25835 16.3231 7.53708 17.0791 8.54677C11.0827 9.68566 6.26869 14.2105 4.70126 20.054H4.37898C1.96441 20.054 0 22.0171 0 24.4301C0 26.843 1.96441 28.8061 4.37898 28.8061H4.84479C6.82838 35.3297 12.8917 40.09 20.045 40.09C27.1984 40.09 33.2617 35.3297 35.2453 28.8061H35.7111C38.1256 28.8061 40.09 26.843 40.09 24.43C40.09 22.017 38.1256 20.054 35.7111 20.054ZM2.34903 24.4301C2.34903 23.3531 3.19475 22.4698 4.25792 22.407C4.19325 22.9889 4.15887 23.5798 4.15887 24.1788C4.15887 24.9518 4.21533 25.7118 4.32221 26.4557C3.22913 26.4254 2.34903 25.5287 2.34903 24.4301ZM20.045 37.741C12.5806 37.741 6.5079 31.657 6.5079 24.1788C6.5079 16.7005 12.5806 10.6166 20.045 10.6166C27.5094 10.6166 33.5821 16.7006 33.5821 24.1788C33.5821 31.6571 27.5094 37.741 20.045 37.741ZM35.7678 26.4557C35.8747 25.7118 35.9312 24.9518 35.9312 24.1788C35.9312 23.5798 35.8968 22.9889 35.8321 22.407C36.8953 22.4698 37.741 23.353 37.741 24.4301C37.741 25.5287 36.8609 26.4254 35.7678 26.4557Z" fill="#FE2937"/>
<path d="M16.9269 24.4825C16.9295 23.2773 16.5703 22.209 15.9155 21.4744C15.3525 20.8428 14.6074 20.4934 13.8174 20.4905C13.814 20.4905 13.8107 20.4905 13.8072 20.4905C13.021 20.4905 12.2783 20.8341 11.7151 21.4587C11.0572 22.1883 10.6933 23.2539 10.6907 24.4591C10.6891 25.2086 11.1478 25.8179 11.7152 25.8201C12.2832 25.8246 12.7441 25.2164 12.7456 24.4669C12.7461 24.2559 12.7994 23.2046 13.8061 23.2046H13.8116C14.8234 23.2084 14.8725 24.2635 14.872 24.4749C14.8704 25.2243 15.3291 25.8336 15.8966 25.8358H15.8995C16.4656 25.8356 16.9252 25.2306 16.9269 24.4825Z" fill="#FE2937"/>
<path d="M27.9564 21.0757C26.9449 20.2999 25.6356 20.2951 24.6208 21.0632C23.6976 21.762 23.1663 23.0003 23.1631 24.4602C23.1616 25.209 23.6202 25.8179 24.1877 25.8201H24.1907C24.7568 25.8201 25.2165 25.2155 25.2181 24.4679C25.2192 23.9757 25.3582 23.6316 25.6433 23.4158C26.0149 23.1345 26.5535 23.1366 26.9238 23.4206C27.2079 23.6385 27.3455 23.9837 27.3444 24.4759C27.3428 25.2248 27.8015 25.8336 28.3689 25.8358H28.3719C28.938 25.8358 29.3978 25.2312 29.3994 24.4837C29.4025 23.0236 28.8765 21.7815 27.9564 21.0757Z" fill="#FE2937"/>
<path d="M22.8021 30.2903C22.1107 30.2903 21.5501 30.8601 21.5501 31.5629C21.5501 32.4051 20.875 33.0903 20.045 33.0903C19.2151 33.0903 18.5399 32.4051 18.5399 31.5629C18.5399 30.8601 17.9794 30.2903 17.288 30.2903C16.5966 30.2903 16.036 30.8601 16.036 31.5629C16.036 33.8086 17.8344 35.6356 20.045 35.6356C22.2556 35.6356 24.054 33.8086 24.054 31.5629C24.054 30.8601 23.4935 30.2903 22.8021 30.2903Z" fill="#FE2937"/>
</svg>
