<svg width="41" height="38" viewBox="0 0 41 38" fill="none" xmlns="http://www.w3.org/2000/svg">
<path d="M34.2144 7.09616H28.3941V4.02414C28.3941 1.80521 26.5889 0 24.37 0H15.8313C13.6124 0 11.8072 1.80521 11.8072 4.02414V7.09608H5.98694C2.68572 7.09616 0 9.78188 0 13.0831V31.8491C0 35.1503 2.68572 37.836 5.98694 37.836H34.2144C37.5156 37.836 40.2013 35.1503 40.2013 31.8491V13.0831C40.2013 9.78188 37.5156 7.09616 34.2144 7.09616ZM14.1627 4.02414C14.1627 3.10406 14.9112 2.35555 15.8313 2.35555H24.37C25.2901 2.35555 26.0386 3.10406 26.0386 4.02414V7.09608H14.1627V4.02414ZM2.35555 31.849V13.0831C2.35555 11.4929 3.38335 10.1392 4.80916 9.64887V35.2834C3.38335 34.7929 2.35555 33.4392 2.35555 31.849ZM7.16471 35.4805V9.45171H33.0366V35.4805H7.16471ZM37.8458 31.849C37.8458 33.4392 36.818 34.7929 35.3922 35.2833V9.64879C36.818 10.1392 37.8458 11.4929 37.8458 13.0831V31.849Z" fill="#FE2937"/>
<path d="M27.1968 18.9229H23.6438V15.3699C23.6438 14.7195 23.1165 14.1921 22.4661 14.1921H17.7353C17.0849 14.1921 16.5576 14.7195 16.5576 15.3699V18.9229H13.0046C12.3542 18.9229 11.8268 19.4502 11.8268 20.1006V24.8314C11.8268 25.4818 12.3542 26.0091 13.0046 26.0091H16.5576V29.5621C16.5576 30.2125 17.0849 30.7399 17.7353 30.7399H22.4661C23.1165 30.7399 23.6438 30.2125 23.6438 29.5621V26.0091H27.1968C27.8472 26.0091 28.3746 25.4818 28.3746 24.8314V20.1006C28.3746 19.4502 27.8472 18.9229 27.1968 18.9229ZM26.019 23.6536H22.4661C21.8156 23.6536 21.2883 24.1809 21.2883 24.8314V28.3843H18.9131V24.8314C18.9131 24.1809 18.3858 23.6536 17.7353 23.6536H14.1824V21.2784H17.7353C18.3858 21.2784 18.9131 20.7511 18.9131 20.1006V16.5477H21.2883V20.1006C21.2883 20.7511 21.8156 21.2784 22.4661 21.2784H26.019V23.6536Z" fill="#FE2937"/>
</svg>
