<svg width="41" height="41" viewBox="0 0 41 41" fill="none" xmlns="http://www.w3.org/2000/svg">
<path d="M36.668 0H9.97181C8.02354 0 6.43849 1.58505 6.43849 3.53332V21.9851H4.3185C1.93728 21.9851 0 23.9224 0 26.3036V31.9569C0 34.3381 1.93728 36.2754 4.3185 36.2754H11.0211C11.2122 37.6054 12.3587 38.631 13.7407 38.631H27.5173L28.9688 39.5986C29.5603 39.9929 30.2487 40.2013 30.9594 40.2013C32.9382 40.2013 34.548 38.5915 34.548 36.6127V33.5825C34.548 31.6037 32.9382 29.994 30.9594 29.994C30.2487 29.994 29.5604 30.2023 28.9688 30.5967L27.5173 31.5643H13.7407C12.3587 31.5643 11.2122 32.5899 11.0211 33.9199H4.3185C3.23613 33.9199 2.35555 33.0393 2.35555 31.9569V26.3036C2.35555 25.2212 3.23613 24.3406 4.3185 24.3406H6.46079C6.65677 26.1048 8.15624 27.4814 9.97181 27.4814H36.668C38.6163 27.4814 40.2013 25.8963 40.2013 23.9481V3.53332C40.2013 1.58505 38.6163 0 36.668 0ZM30.9594 32.3495C31.6393 32.3495 32.1925 32.9026 32.1925 33.5826V36.6128C32.1925 37.2927 31.6393 37.8459 30.9594 37.8459C30.7152 37.8459 30.4787 37.7743 30.2754 37.6388L29.0517 36.8228V33.3724L30.2754 32.5566C30.4787 32.4211 30.7152 32.3495 30.9594 32.3495ZM13.3481 34.3125C13.3481 34.096 13.5242 33.9199 13.7407 33.9199H26.6962V36.2754H13.7407C13.5242 36.2754 13.3481 36.0993 13.3481 35.8828V34.3125ZM9.97181 2.35555H36.668C37.3174 2.35555 37.8458 2.8839 37.8458 3.53332V17.274H8.79404V3.53332C8.79404 2.8839 9.32239 2.35555 9.97181 2.35555ZM36.668 25.1258H9.97181C9.32239 25.1258 8.79404 24.5975 8.79404 23.9481V19.6296H37.8458V23.9481C37.8458 24.5975 37.3174 25.1258 36.668 25.1258Z" fill="#FE2937"/>
<path d="M12.3268 23.5555C12.9773 23.5555 13.5046 23.0282 13.5046 22.3777C13.5046 21.7273 12.9773 21.2 12.3268 21.2C11.6763 21.2 11.149 21.7273 11.149 22.3777C11.149 23.0282 11.6763 23.5555 12.3268 23.5555Z" fill="#FE2937"/>
<path d="M17.0379 23.5555C17.6883 23.5555 18.2157 23.0282 18.2157 22.3777C18.2157 21.7273 17.6883 21.2 17.0379 21.2C16.3874 21.2 15.8601 21.7273 15.8601 22.3777C15.8601 23.0282 16.3874 23.5555 17.0379 23.5555Z" fill="#FE2937"/>
<path d="M21.749 23.5555C22.3995 23.5555 22.9268 23.0282 22.9268 22.3777C22.9268 21.7273 22.3995 21.2 21.749 21.2C21.0985 21.2 20.5712 21.7273 20.5712 22.3777C20.5712 23.0282 21.0985 23.5555 21.749 23.5555Z" fill="#FE2937"/>
<path d="M34.3119 21.2H29.6008C28.9504 21.2 28.423 21.7273 28.423 22.3777C28.423 23.0282 28.9504 23.5555 29.6008 23.5555H34.3119C34.9623 23.5555 35.4897 23.0282 35.4897 22.3777C35.4897 21.7273 34.9623 21.2 34.3119 21.2Z" fill="#FE2937"/>
<path d="M14.3449 11.3539C16.7175 13.7265 19.834 14.9128 22.9507 14.9128C26.0673 14.9128 29.1838 13.7266 31.5564 11.3539C32.0164 10.894 32.0164 10.1483 31.5564 9.6883L26.5595 4.69141C26.0996 4.23145 25.3539 4.23145 24.8939 4.69141C23.8206 5.76459 22.0807 5.76459 21.0074 4.69141C20.5475 4.23152 19.8018 4.23152 19.3418 4.69141L14.3449 9.6883C13.885 10.1482 13.885 10.894 14.3449 11.3539ZM20.2716 7.09281C21.9075 8.10169 23.9939 8.10169 25.6297 7.09281L29.0083 10.4714C25.4658 13.2543 20.4355 13.2543 16.893 10.4714L20.2716 7.09281Z" fill="#FE2937"/>
</svg>
