<svg width="33" height="41" viewBox="0 0 33 41" fill="none" xmlns="http://www.w3.org/2000/svg">
<path d="M30.8898 5.99307H23.5118V5.14706C23.5118 4.49832 22.9826 3.97255 22.3296 3.97255H21.515C21.3727 1.75626 19.6668 0 17.59 0H14.4818C12.4052 0 10.699 1.75626 10.5571 3.97255H9.74214C9.08915 3.97255 8.55993 4.49832 8.55993 5.14706V5.99307H1.18221C0.529223 5.99307 0 6.51916 0 7.16759V38.9155C0 39.5643 0.529223 40.09 1.18221 40.09H30.8898C31.5425 40.09 32.072 39.5643 32.072 38.9155V7.16759C32.072 6.51885 31.5425 5.99307 30.8898 5.99307ZM24.8051 13.3427V32.9968H7.26689V13.3427H24.8051ZM10.9243 6.32157H11.7297C12.3827 6.32157 12.9119 5.79579 12.9119 5.14706V4.27199C12.9119 3.21156 13.6163 2.34903 14.4818 2.34903H17.59C18.4557 2.34903 19.1601 3.21156 19.1601 4.27199V5.14706C19.1601 5.79579 19.6893 6.32157 20.3423 6.32157H21.1474V10.9936H10.9243V6.32157ZM29.7076 37.741H2.36442V8.3421H8.55993V10.9936H6.08468C5.4317 10.9936 4.90247 11.5194 4.90247 12.1681V34.1713C4.90247 34.82 5.4317 35.3458 6.08468 35.3458H25.987C26.64 35.3458 27.1693 34.82 27.1693 34.1713V12.1681C27.1693 11.5194 26.64 10.9936 25.987 10.9936H23.5118V8.3421H29.7073L29.7076 37.741Z" fill="#FE2937"/>
<path d="M10.8375 29.3994H11.4347C12.0076 29.3994 12.4725 29.0006 12.4725 28.5085C12.4725 28.0164 12.0076 27.6176 11.4347 27.6176H10.8375C10.2646 27.6176 9.79979 28.0164 9.79979 28.5085C9.79979 29.0006 10.2643 29.3994 10.8375 29.3994Z" fill="#FE2937"/>
<path d="M15.4836 29.3994H21.0429C21.7219 29.3994 22.2722 29.0006 22.2722 28.5085C22.2722 28.0164 21.7219 27.6176 21.0429 27.6176H15.4836C14.8049 27.6176 14.2542 28.0164 14.2542 28.5085C14.2542 29.0006 14.8049 29.3994 15.4836 29.3994Z" fill="#FE2937"/>
<path d="M10.8375 24.054H11.4347C12.0076 24.054 12.4725 23.4558 12.4725 22.7177C12.4725 21.9796 12.0076 21.3814 11.4347 21.3814H10.8375C10.2646 21.3814 9.79979 21.9796 9.79979 22.7177C9.79979 23.4558 10.2643 24.054 10.8375 24.054Z" fill="#FE2937"/>
<path d="M15.4836 24.054H21.0429C21.7219 24.054 22.2722 23.4558 22.2722 22.7177C22.2722 21.9796 21.7219 21.3814 21.0429 21.3814H15.4836C14.8049 21.3814 14.2542 21.9796 14.2542 22.7177C14.2542 23.4558 14.8049 24.054 15.4836 24.054Z" fill="#FE2937"/>
<path d="M10.8375 18.7087H11.4347C12.0076 18.7087 12.4725 18.1105 12.4725 17.3724C12.4725 16.6342 12.0076 16.036 11.4347 16.036H10.8375C10.2646 16.036 9.79979 16.6342 9.79979 17.3724C9.79979 18.1105 10.2643 18.7087 10.8375 18.7087Z" fill="#FE2937"/>
<path d="M15.4836 18.7087H21.0429C21.7219 18.7087 22.2722 18.1105 22.2722 17.3724C22.2722 16.6342 21.7219 16.036 21.0429 16.036H15.4836C14.8049 16.036 14.2542 16.6342 14.2542 17.3724C14.2542 18.1105 14.8049 18.7087 15.4836 18.7087Z" fill="#FE2937"/>
<path d="M16.0142 5.34534H16.0578C17.0295 5.34534 17.8178 4.74712 17.8178 4.009C17.8178 3.27124 17.0295 2.67267 16.0578 2.67267H16.0142C15.0421 2.67267 14.2542 3.27124 14.2542 4.009C14.2542 4.74712 15.0421 5.34534 16.0142 5.34534Z" fill="#FE2937"/>
</svg>
