<svg xmlns="http://www.w3.org/2000/svg" width="528.44" height="17.91" viewBox="0 0 528.44 17.91"><path d="M207.23,1.39A1.39,1.39,0,1,0,208.61,0,1.38,1.38,0,0,0,207.23,1.39Z" fill="#fe2937"/><path d="M223,1.39A1.39,1.39,0,1,0,224.39,0,1.38,1.38,0,0,0,223,1.39Z" fill="#fe2937"/><path d="M95.68,1.39A1.39,1.39,0,1,0,97.06,0,1.38,1.38,0,0,0,95.68,1.39Z" fill="#fe2937"/><path d="M207.23,16.5a1.39,1.39,0,1,0,1.38-1.39A1.38,1.38,0,0,0,207.23,16.5Z" fill="#fe2937"/><path d="M223,16.5a1.39,1.39,0,1,0,1.39-1.39A1.38,1.38,0,0,0,223,16.5Z" fill="#fe2937"/><path d="M95.68,16.5a1.39,1.39,0,1,0,1.38-1.39A1.38,1.38,0,0,0,95.68,16.5Z" fill="#fe2937"/><path d="M191.28,1.39A1.39,1.39,0,1,0,192.67,0,1.38,1.38,0,0,0,191.28,1.39Z" fill="#fe2937"/><path d="M79.73,1.39A1.39,1.39,0,1,0,81.12,0,1.38,1.38,0,0,0,79.73,1.39Z" fill="#fe2937"/><path d="M191.28,16.5a1.39,1.39,0,1,0,1.39-1.39A1.38,1.38,0,0,0,191.28,16.5Z" fill="#fe2937"/><path d="M79.73,16.5a1.39,1.39,0,1,0,1.39-1.39A1.38,1.38,0,0,0,79.73,16.5Z" fill="#fe2937"/><path d="M176.73,2.8a1.42,1.42,0,0,1-.78-.23,1.37,1.37,0,0,1-.51-.63,1.37,1.37,0,0,1-.09-.8,1.52,1.52,0,0,1,.38-.72,1.44,1.44,0,0,1,.72-.38,1.29,1.29,0,0,1,.8.08,1.32,1.32,0,0,1,.63.51,1.42,1.42,0,0,1,.23.77,1.38,1.38,0,0,1-1.38,1.4Z" fill="#fe2937"/><path d="M65.18,2.8a1.42,1.42,0,0,1-.78-.23,1.43,1.43,0,0,1-.51-.63,1.29,1.29,0,0,1-.08-.8A1.38,1.38,0,0,1,64.9,0a1.33,1.33,0,0,1,.81.08,1.34,1.34,0,0,1,.62.51,1.35,1.35,0,0,1,.24.77,1.41,1.41,0,0,1-.41,1A1.39,1.39,0,0,1,65.18,2.8Z" fill="#fe2937"/><path d="M176.73,17.91a1.42,1.42,0,0,1-.78-.23,1.32,1.32,0,0,1-.51-.63,1.29,1.29,0,0,1-.08-.8,1.38,1.38,0,0,1,1.09-1.1,1.5,1.5,0,0,1,.81.08,1.43,1.43,0,0,1,.62.52,1.27,1.27,0,0,1,.23.77,1.38,1.38,0,0,1-1.38,1.39Z" fill="#fe2937"/><path d="M65.18,17.91a1.42,1.42,0,0,1-.78-.23,1.32,1.32,0,0,1-.51-.63,1.29,1.29,0,0,1-.08-.8,1.38,1.38,0,0,1,1.09-1.1,1.49,1.49,0,0,1,.81.08,1.43,1.43,0,0,1,.62.52,1.35,1.35,0,0,1,.24.77,1.4,1.4,0,0,1-1.39,1.39Z" fill="#fe2937"/><path d="M160.78,2.8a1.36,1.36,0,0,1-.78-.24,1.39,1.39,0,0,1-.59-1.43,1.37,1.37,0,0,1,.38-.71A1.34,1.34,0,0,1,160.5,0a1.32,1.32,0,0,1,.81.08,1.34,1.34,0,0,1,.62.51,1.35,1.35,0,0,1,.24.77,1.41,1.41,0,0,1-.41,1A1.39,1.39,0,0,1,160.78,2.8Z" fill="#fe2937"/><path d="M49.23,2.8a1.36,1.36,0,0,1-.78-.24,1.47,1.47,0,0,1-.51-.62,1.5,1.5,0,0,1-.08-.81,1.45,1.45,0,0,1,.38-.71A1.37,1.37,0,0,1,49,0a1.29,1.29,0,0,1,.8.08,1.37,1.37,0,0,1,.63.51,1.4,1.4,0,0,1-.18,1.76A1.39,1.39,0,0,1,49.23,2.8Z" fill="#fe2937"/><path d="M160.78,17.91a1.37,1.37,0,0,1-1.29-.86,1.41,1.41,0,0,1-.08-.81,1.49,1.49,0,0,1,.38-.71,1.4,1.4,0,0,1,1.52-.3,1.4,1.4,0,0,1,.63.52,1.42,1.42,0,0,1,.23.77,1.37,1.37,0,0,1-.41,1A1.4,1.4,0,0,1,160.78,17.91Z" fill="#fe2937"/><path d="M49.23,17.91a1.42,1.42,0,0,1-.78-.23,1.57,1.57,0,0,1-.51-.63,1.5,1.5,0,0,1-.08-.81,1.43,1.43,0,0,1,.39-.71,1.37,1.37,0,0,1,.71-.38,1.5,1.5,0,0,1,.81.08,1.4,1.4,0,0,1,.85,1.29,1.37,1.37,0,0,1-.41,1A1.39,1.39,0,0,1,49.23,17.91Z" fill="#fe2937"/><path d="M143.44,1.39A1.39,1.39,0,1,0,144.83,0,1.39,1.39,0,0,0,143.44,1.39Z" fill="#fe2937"/><path d="M31.9,1.39A1.39,1.39,0,1,0,33.28,0,1.38,1.38,0,0,0,31.9,1.39Z" fill="#fe2937"/><path d="M143.44,16.5a1.39,1.39,0,1,0,1.39-1.39A1.39,1.39,0,0,0,143.44,16.5Z" fill="#fe2937"/><path d="M31.9,16.5a1.39,1.39,0,1,0,1.38-1.39A1.38,1.38,0,0,0,31.9,16.5Z" fill="#fe2937"/><path d="M127.5,1.39A1.39,1.39,0,1,0,128.89,0,1.38,1.38,0,0,0,127.5,1.39Z" fill="#fe2937"/><path d="M16,1.39A1.39,1.39,0,1,0,17.34,0,1.38,1.38,0,0,0,16,1.39Z" fill="#fe2937"/><path d="M127.5,16.5a1.39,1.39,0,1,0,1.39-1.39A1.38,1.38,0,0,0,127.5,16.5Z" fill="#fe2937"/><path d="M16,16.5a1.39,1.39,0,1,0,1.39-1.39A1.38,1.38,0,0,0,16,16.5Z" fill="#fe2937"/><path d="M112.94,2.8a1.35,1.35,0,0,1-.77-.24,1.43,1.43,0,0,1-.52-.62,1.4,1.4,0,0,1-.07-.81A1.3,1.3,0,0,1,112,.42a1.3,1.3,0,0,1,.71-.38,1.29,1.29,0,0,1,.8.08,1.32,1.32,0,0,1,.63.51,1.42,1.42,0,0,1,.23.77,1.4,1.4,0,0,1-.4,1A1.41,1.41,0,0,1,112.94,2.8Z" fill="#fe2937"/><path d="M1.39,2.8a1.35,1.35,0,0,1-.77-.24,1.34,1.34,0,0,1-.51-.62A1.33,1.33,0,0,1,0,1.13,1.3,1.3,0,0,1,.41.42,1.3,1.3,0,0,1,1.12,0a1.33,1.33,0,0,1,.81.08,1.34,1.34,0,0,1,.62.51,1.43,1.43,0,0,1,.24.77,1.4,1.4,0,0,1-1.4,1.4Z" fill="#fe2937"/><path d="M112.94,17.91a1.42,1.42,0,0,1-.77-.23,1.51,1.51,0,0,1-.52-.63,1.4,1.4,0,0,1-.07-.81,1.34,1.34,0,0,1,.38-.71,1.37,1.37,0,0,1,.71-.38,1.5,1.5,0,0,1,.81.08,1.43,1.43,0,0,1,.62.52,1.27,1.27,0,0,1,.23.77,1.33,1.33,0,0,1-.41,1A1.39,1.39,0,0,1,112.94,17.91Z" fill="#fe2937"/><path d="M1.39,17.91a1.42,1.42,0,0,1-.77-.23,1.42,1.42,0,0,1-.51-.63A1.33,1.33,0,0,1,0,16.24a1.34,1.34,0,0,1,.38-.71,1.41,1.41,0,0,1,.71-.38,1.48,1.48,0,0,1,.81.08,1.43,1.43,0,0,1,.62.52,1.35,1.35,0,0,1,.24.77,1.41,1.41,0,0,1-.41,1A1.43,1.43,0,0,1,1.39,17.91Z" fill="#fe2937"/><path d="M446.23,1.39A1.39,1.39,0,1,0,447.61,0,1.38,1.38,0,0,0,446.23,1.39Z" fill="#fe2937"/><path d="M509.9,1.39A1.39,1.39,0,1,0,511.28,0,1.38,1.38,0,0,0,509.9,1.39Z" fill="#fe2937"/><path d="M462,1.39A1.39,1.39,0,1,0,463.39,0,1.38,1.38,0,0,0,462,1.39Z" fill="#fe2937"/><path d="M525.67,1.39A1.39,1.39,0,1,0,527.06,0,1.38,1.38,0,0,0,525.67,1.39Z" fill="#fe2937"/><path d="M334.68,1.39A1.39,1.39,0,1,0,336.06,0,1.38,1.38,0,0,0,334.68,1.39Z" fill="#fe2937"/><path d="M446.23,16.5a1.39,1.39,0,1,0,1.38-1.39A1.38,1.38,0,0,0,446.23,16.5Z" fill="#fe2937"/><path d="M509.9,16.5a1.39,1.39,0,1,0,1.38-1.39A1.38,1.38,0,0,0,509.9,16.5Z" fill="#fe2937"/><path d="M462,16.5a1.39,1.39,0,1,0,1.39-1.39A1.38,1.38,0,0,0,462,16.5Z" fill="#fe2937"/><path d="M525.67,16.5a1.39,1.39,0,1,0,1.39-1.39A1.38,1.38,0,0,0,525.67,16.5Z" fill="#fe2937"/><path d="M334.68,16.5a1.39,1.39,0,1,0,1.38-1.39A1.38,1.38,0,0,0,334.68,16.5Z" fill="#fe2937"/><path d="M430.28,1.39A1.39,1.39,0,1,0,431.67,0,1.38,1.38,0,0,0,430.28,1.39Z" fill="#fe2937"/><path d="M494,1.39A1.39,1.39,0,1,0,495.34,0,1.38,1.38,0,0,0,494,1.39Z" fill="#fe2937"/><path d="M318.73,1.39A1.39,1.39,0,1,0,320.12,0,1.38,1.38,0,0,0,318.73,1.39Z" fill="#fe2937"/><path d="M430.28,16.5a1.39,1.39,0,1,0,1.39-1.39A1.38,1.38,0,0,0,430.28,16.5Z" fill="#fe2937"/><path d="M494,16.5a1.39,1.39,0,1,0,1.39-1.39A1.38,1.38,0,0,0,494,16.5Z" fill="#fe2937"/><path d="M318.73,16.5a1.39,1.39,0,1,0,1.39-1.39A1.38,1.38,0,0,0,318.73,16.5Z" fill="#fe2937"/><path d="M415.73,2.8a1.42,1.42,0,0,1-.78-.23,1.37,1.37,0,0,1-.51-.63,1.37,1.37,0,0,1-.09-.8,1.52,1.52,0,0,1,.38-.72,1.44,1.44,0,0,1,.72-.38,1.29,1.29,0,0,1,.8.08,1.32,1.32,0,0,1,.63.51,1.42,1.42,0,0,1,.23.77,1.38,1.38,0,0,1-1.38,1.4Z" fill="#fe2937"/><path d="M479.4,2.8a1.42,1.42,0,0,1-.78-.23,1.37,1.37,0,0,1-.51-.63,1.29,1.29,0,0,1-.08-.8A1.38,1.38,0,0,1,479.12,0a1.29,1.29,0,0,1,.8.08,1.32,1.32,0,0,1,.63.51,1.43,1.43,0,0,1,.24.77,1.41,1.41,0,0,1-.41,1A1.39,1.39,0,0,1,479.4,2.8Z" fill="#fe2937"/><path d="M304.18,2.8a1.42,1.42,0,0,1-.78-.23,1.43,1.43,0,0,1-.51-.63,1.29,1.29,0,0,1-.08-.8A1.38,1.38,0,0,1,303.9,0a1.33,1.33,0,0,1,.81.08,1.34,1.34,0,0,1,.62.51,1.35,1.35,0,0,1,.24.77,1.41,1.41,0,0,1-.41,1A1.39,1.39,0,0,1,304.18,2.8Z" fill="#fe2937"/><path d="M415.73,17.91a1.42,1.42,0,0,1-.78-.23,1.32,1.32,0,0,1-.51-.63,1.29,1.29,0,0,1-.08-.8,1.38,1.38,0,0,1,1.09-1.1,1.5,1.5,0,0,1,.81.08,1.43,1.43,0,0,1,.62.52,1.27,1.27,0,0,1,.23.77,1.38,1.38,0,0,1-1.38,1.39Z" fill="#fe2937"/><path d="M479.4,17.91a1.42,1.42,0,0,1-.78-.23,1.32,1.32,0,0,1-.51-.63,1.29,1.29,0,0,1-.08-.8,1.38,1.38,0,0,1,1.09-1.1,1.5,1.5,0,0,1,.81.08,1.43,1.43,0,0,1,.62.52,1.35,1.35,0,0,1,.24.77,1.43,1.43,0,0,1-.41,1A1.39,1.39,0,0,1,479.4,17.91Z" fill="#fe2937"/><path d="M304.18,17.91a1.42,1.42,0,0,1-.78-.23,1.32,1.32,0,0,1-.51-.63,1.29,1.29,0,0,1-.08-.8,1.38,1.38,0,0,1,1.09-1.1,1.49,1.49,0,0,1,.81.08,1.43,1.43,0,0,1,.62.52,1.35,1.35,0,0,1,.24.77,1.4,1.4,0,0,1-1.39,1.39Z" fill="#fe2937"/><path d="M399.78,2.8a1.36,1.36,0,0,1-.78-.24,1.39,1.39,0,0,1-.59-1.43,1.37,1.37,0,0,1,.38-.71A1.34,1.34,0,0,1,399.5,0a1.32,1.32,0,0,1,.81.08,1.34,1.34,0,0,1,.62.51,1.35,1.35,0,0,1,.24.77,1.41,1.41,0,0,1-.41,1A1.39,1.39,0,0,1,399.78,2.8Z" fill="#fe2937"/><path d="M288.23,2.8a1.36,1.36,0,0,1-.78-.24,1.47,1.47,0,0,1-.51-.62,1.5,1.5,0,0,1-.08-.81,1.45,1.45,0,0,1,.38-.71A1.37,1.37,0,0,1,288,0a1.29,1.29,0,0,1,.8.08,1.37,1.37,0,0,1,.63.51,1.4,1.4,0,0,1-.18,1.76A1.39,1.39,0,0,1,288.23,2.8Z" fill="#fe2937"/><path d="M399.78,17.91a1.37,1.37,0,0,1-1.29-.86,1.41,1.41,0,0,1-.08-.81,1.49,1.49,0,0,1,.38-.71,1.4,1.4,0,0,1,1.52-.3,1.4,1.4,0,0,1,.63.52,1.42,1.42,0,0,1,.23.77,1.37,1.37,0,0,1-.41,1A1.4,1.4,0,0,1,399.78,17.91Z" fill="#fe2937"/><path d="M288.23,17.91a1.42,1.42,0,0,1-.78-.23,1.42,1.42,0,0,1-.59-1.44,1.43,1.43,0,0,1,.39-.71,1.37,1.37,0,0,1,.71-.38,1.5,1.5,0,0,1,.81.08,1.4,1.4,0,0,1,.85,1.29,1.37,1.37,0,0,1-.41,1A1.39,1.39,0,0,1,288.23,17.91Z" fill="#fe2937"/><path d="M382.44,1.39A1.39,1.39,0,1,0,383.83,0,1.39,1.39,0,0,0,382.44,1.39Z" fill="#fe2937"/><path d="M270.9,1.39A1.39,1.39,0,1,0,272.28,0,1.38,1.38,0,0,0,270.9,1.39Z" fill="#fe2937"/><path d="M382.44,16.5a1.39,1.39,0,1,0,1.39-1.39A1.39,1.39,0,0,0,382.44,16.5Z" fill="#fe2937"/><path d="M270.9,16.5a1.39,1.39,0,1,0,1.38-1.39A1.38,1.38,0,0,0,270.9,16.5Z" fill="#fe2937"/><path d="M366.5,1.39A1.39,1.39,0,1,0,367.89,0,1.38,1.38,0,0,0,366.5,1.39Z" fill="#fe2937"/><path d="M255,1.39A1.39,1.39,0,1,0,256.34,0,1.38,1.38,0,0,0,255,1.39Z" fill="#fe2937"/><path d="M366.5,16.5a1.39,1.39,0,1,0,1.39-1.39A1.38,1.38,0,0,0,366.5,16.5Z" fill="#fe2937"/><path d="M255,16.5a1.39,1.39,0,1,0,1.39-1.39A1.38,1.38,0,0,0,255,16.5Z" fill="#fe2937"/><path d="M351.94,2.8a1.35,1.35,0,0,1-.77-.24,1.43,1.43,0,0,1-.52-.62,1.4,1.4,0,0,1-.07-.81A1.3,1.3,0,0,1,351,.42a1.3,1.3,0,0,1,.71-.38,1.29,1.29,0,0,1,.8.08,1.32,1.32,0,0,1,.63.51,1.42,1.42,0,0,1,.23.77,1.4,1.4,0,0,1-.4,1A1.41,1.41,0,0,1,351.94,2.8Z" fill="#fe2937"/><path d="M240.39,2.8a1.35,1.35,0,0,1-.77-.24,1.34,1.34,0,0,1-.51-.62,1.33,1.33,0,0,1-.08-.81,1.3,1.3,0,0,1,.38-.71,1.3,1.3,0,0,1,.71-.38,1.33,1.33,0,0,1,.81.08,1.34,1.34,0,0,1,.62.51,1.43,1.43,0,0,1,.24.77,1.4,1.4,0,0,1-1.4,1.4Z" fill="#fe2937"/><path d="M351.94,17.91a1.42,1.42,0,0,1-.77-.23,1.51,1.51,0,0,1-.52-.63,1.4,1.4,0,0,1-.07-.81,1.34,1.34,0,0,1,.38-.71,1.37,1.37,0,0,1,.71-.38,1.5,1.5,0,0,1,.81.08,1.43,1.43,0,0,1,.62.52,1.27,1.27,0,0,1,.23.77,1.33,1.33,0,0,1-.41,1A1.39,1.39,0,0,1,351.94,17.91Z" fill="#fe2937"/><path d="M240.39,17.91a1.37,1.37,0,0,1-1.28-.86,1.39,1.39,0,0,1,.3-1.52,1.41,1.41,0,0,1,.71-.38,1.48,1.48,0,0,1,.81.08,1.43,1.43,0,0,1,.62.52,1.35,1.35,0,0,1,.24.77,1.41,1.41,0,0,1-.41,1A1.43,1.43,0,0,1,240.39,17.91Z" fill="#fe2937"/></svg>