<svg width="226" height="63" viewBox="0 0 226 63" fill="none" xmlns="http://www.w3.org/2000/svg">
<path d="M207.226 1.38668C207.226 2.1525 207.847 2.77331 208.613 2.77331C209.379 2.77331 210 2.1525 210 1.38668C210 0.620847 209.379 3.34754e-08 208.613 0C207.847 -3.34754e-08 207.226 0.620847 207.226 1.38668Z" fill="#FE2937"/>
<path d="M223 1.38668C223 2.1525 223.621 2.77331 224.387 2.77331C225.152 2.77331 225.773 2.1525 225.773 1.38668C225.773 0.620847 225.152 3.34754e-08 224.387 0C223.621 -3.34754e-08 223 0.620847 223 1.38668Z" fill="#FE2937"/>
<path d="M95.678 1.38668C95.678 2.1525 96.2988 2.77331 97.0647 2.77331C97.8305 2.77331 98.4513 2.1525 98.4513 1.38668C98.4513 0.620847 97.8305 3.34754e-08 97.0647 0C96.2988 -3.34754e-08 95.678 0.620847 95.678 1.38668Z" fill="#FE2937"/>
<path d="M207.226 16.4945C207.226 17.2603 207.847 17.8811 208.613 17.8811C209.379 17.8811 210 17.2603 210 16.4945C210 15.7286 209.379 15.1078 208.613 15.1078C207.847 15.1078 207.226 15.7286 207.226 16.4945Z" fill="#FE2937"/>
<path d="M223 16.4945C223 17.2603 223.621 17.8811 224.387 17.8811C225.152 17.8811 225.773 17.2603 225.773 16.4945C225.773 15.7286 225.152 15.1078 224.387 15.1078C223.621 15.1078 223 15.7286 223 16.4945Z" fill="#FE2937"/>
<path d="M207.226 46.104C207.226 46.8698 207.847 47.4906 208.613 47.4906C209.379 47.4906 210 46.8698 210 46.104C210 45.3381 209.379 44.7173 208.613 44.7173C207.847 44.7173 207.226 45.3381 207.226 46.104Z" fill="#FE2937"/>
<path d="M223 46.104C223 46.8698 223.621 47.4906 224.387 47.4906C225.152 47.4906 225.773 46.8698 225.773 46.104C225.773 45.3381 225.152 44.7173 224.387 44.7173C223.621 44.7173 223 45.3381 223 46.104Z" fill="#FE2937"/>
<path d="M95.678 16.4945C95.678 17.2603 96.2988 17.8811 97.0647 17.8811C97.8305 17.8811 98.4513 17.2603 98.4513 16.4945C98.4513 15.7286 97.8305 15.1078 97.0647 15.1078C96.2988 15.1078 95.678 15.7286 95.678 16.4945Z" fill="#FE2937"/>
<path d="M95.678 46.104C95.678 46.8698 96.2988 47.4906 97.0647 47.4906C97.8305 47.4906 98.4513 46.8698 98.4513 46.104C98.4513 45.3381 97.8305 44.7173 97.0647 44.7173C96.2988 44.7173 95.678 45.3381 95.678 46.104Z" fill="#FE2937"/>
<path d="M207.226 31.2898C207.226 32.0556 207.847 32.6764 208.613 32.6764C209.379 32.6764 210 32.0556 210 31.2898C210 30.5239 209.379 29.9031 208.613 29.9031C207.847 29.9031 207.226 30.5239 207.226 31.2898Z" fill="#FE2937"/>
<path d="M223 31.2898C223 32.0556 223.621 32.6764 224.387 32.6764C225.152 32.6764 225.773 32.0556 225.773 31.2898C225.773 30.5239 225.152 29.9031 224.387 29.9031C223.621 29.9031 223 30.5239 223 31.2898Z" fill="#FE2937"/>
<path d="M207.226 60.8994C207.226 61.6652 207.847 62.286 208.613 62.286C209.379 62.286 210 61.6652 210 60.8994C210 60.1335 209.379 59.5127 208.613 59.5127C207.847 59.5127 207.226 60.1335 207.226 60.8994Z" fill="#FE2937"/>
<path d="M223 60.8994C223 61.6652 223.621 62.286 224.387 62.286C225.152 62.286 225.773 61.6652 225.773 60.8994C225.773 60.1335 225.152 59.5127 224.387 59.5127C223.621 59.5127 223 60.1335 223 60.8994Z" fill="#FE2937"/>
<path d="M95.678 31.2898C95.678 32.0556 96.2988 32.6764 97.0647 32.6764C97.8305 32.6764 98.4513 32.0556 98.4513 31.2898C98.4513 30.5239 97.8305 29.9031 97.0647 29.9031C96.2988 29.9031 95.678 30.5239 95.678 31.2898Z" fill="#FE2937"/>
<path d="M95.678 60.8994C95.678 61.6652 96.2988 62.286 97.0647 62.286C97.8305 62.286 98.4513 61.6652 98.4513 60.8994C98.4513 60.1335 97.8305 59.5127 97.0647 59.5127C96.2988 59.5127 95.678 60.1335 95.678 60.8994Z" fill="#FE2937"/>
<path d="M191.281 1.38668C191.281 2.1525 191.902 2.77331 192.668 2.77331C193.434 2.77331 194.054 2.1525 194.054 1.38668C194.054 0.620847 193.434 3.34754e-08 192.668 0C191.902 -3.34754e-08 191.281 0.620847 191.281 1.38668Z" fill="#FE2937"/>
<path d="M79.7327 1.38668C79.7327 2.1525 80.3535 2.77331 81.1194 2.77331C81.8852 2.77331 82.506 2.1525 82.506 1.38668C82.506 0.620847 81.8852 3.34754e-08 81.1194 0C80.3535 -3.34754e-08 79.7327 0.620847 79.7327 1.38668Z" fill="#FE2937"/>
<path d="M191.281 16.4945C191.281 17.2603 191.902 17.8811 192.668 17.8811C193.434 17.8811 194.054 17.2603 194.054 16.4945C194.054 15.7286 193.434 15.1078 192.668 15.1078C191.902 15.1078 191.281 15.7286 191.281 16.4945Z" fill="#FE2937"/>
<path d="M191.281 46.104C191.281 46.8698 191.902 47.4906 192.668 47.4906C193.434 47.4906 194.054 46.8698 194.054 46.104C194.054 45.3381 193.434 44.7173 192.668 44.7173C191.902 44.7173 191.281 45.3381 191.281 46.104Z" fill="#FE2937"/>
<path d="M79.7327 16.4945C79.7327 17.2603 80.3535 17.8811 81.1194 17.8811C81.8852 17.8811 82.506 17.2603 82.506 16.4945C82.506 15.7286 81.8852 15.1078 81.1194 15.1078C80.3535 15.1078 79.7327 15.7286 79.7327 16.4945Z" fill="#FE2937"/>
<path d="M79.7327 46.104C79.7327 46.8698 80.3535 47.4906 81.1194 47.4906C81.8852 47.4906 82.506 46.8698 82.506 46.104C82.506 45.3381 81.8852 44.7173 81.1194 44.7173C80.3535 44.7173 79.7327 45.3381 79.7327 46.104Z" fill="#FE2937"/>
<path d="M191.281 31.2898C191.281 32.0556 191.902 32.6764 192.668 32.6764C193.434 32.6764 194.054 32.0556 194.054 31.2898C194.054 30.5239 193.434 29.9031 192.668 29.9031C191.902 29.9031 191.281 30.5239 191.281 31.2898Z" fill="#FE2937"/>
<path d="M191.281 60.8994C191.281 61.6652 191.902 62.286 192.668 62.286C193.434 62.286 194.054 61.6652 194.054 60.8994C194.054 60.1335 193.434 59.5127 192.668 59.5127C191.902 59.5127 191.281 60.1335 191.281 60.8994Z" fill="#FE2937"/>
<path d="M79.7327 31.2898C79.7327 32.0556 80.3535 32.6764 81.1194 32.6764C81.8852 32.6764 82.506 32.0556 82.506 31.2898C82.506 30.5239 81.8852 29.9031 81.1194 29.9031C80.3535 29.9031 79.7327 30.5239 79.7327 31.2898Z" fill="#FE2937"/>
<path d="M79.7327 60.8994C79.7327 61.6652 80.3535 62.286 81.1194 62.286C81.8852 62.286 82.506 61.6652 82.506 60.8994C82.506 60.1335 81.8852 59.5127 81.1194 59.5127C80.3535 59.5127 79.7327 60.1335 79.7327 60.8994Z" fill="#FE2937"/>
<path d="M176.729 2.79836C176.453 2.7996 176.183 2.71895 175.953 2.56664C175.723 2.41434 175.544 2.19723 175.438 1.94283C175.331 1.68842 175.303 1.40818 175.356 1.13758C175.409 0.866969 175.541 0.618181 175.735 0.422755C175.93 0.227329 176.178 0.0940552 176.449 0.0398015C176.719 -0.0144521 176.999 0.012754 177.254 0.117993C177.509 0.223233 177.727 0.401754 177.88 0.630949C178.034 0.860144 178.116 1.12972 178.116 1.40547C178.116 1.77381 177.97 2.12715 177.71 2.38819C177.45 2.64923 177.097 2.79671 176.729 2.79836Z" fill="#FE2937"/>
<path d="M65.1804 2.79836C64.9046 2.7996 64.6347 2.71895 64.4048 2.56664C64.175 2.41434 63.9955 2.19723 63.8891 1.94283C63.7827 1.68842 63.7542 1.40818 63.8073 1.13758C63.8603 0.866969 63.9925 0.618181 64.187 0.422755C64.3816 0.227329 64.6297 0.0940552 64.9001 0.0398015C65.1705 -0.0144521 65.4509 0.012754 65.7057 0.117993C65.9606 0.223233 66.1785 0.401754 66.3319 0.630949C66.4852 0.860144 66.5671 1.12972 66.5671 1.40547C66.5671 1.77381 66.4212 2.12715 66.1613 2.38819C65.9014 2.64923 65.5487 2.79671 65.1804 2.79836Z" fill="#FE2937"/>
<path d="M176.729 17.9123C176.453 17.9135 176.183 17.8327 175.953 17.6801C175.723 17.5275 175.543 17.31 175.437 17.0553C175.331 16.8005 175.303 16.5199 175.356 16.2491C175.41 15.9784 175.542 15.7296 175.738 15.5344C175.933 15.3393 176.182 15.2065 176.452 15.1529C176.723 15.0994 177.004 15.1275 177.259 15.2337C177.513 15.3399 177.731 15.5194 177.883 15.7494C178.036 15.9794 178.117 16.2496 178.115 16.5256C178.114 16.8929 177.967 17.2446 177.708 17.5043C177.448 17.764 177.096 17.9106 176.729 17.9123Z" fill="#FE2937"/>
<path d="M176.729 47.5219C176.453 47.5231 176.183 47.4423 175.953 47.2897C175.723 47.1372 175.543 46.9197 175.437 46.6649C175.331 46.4101 175.303 46.1295 175.356 45.8588C175.41 45.588 175.542 45.3392 175.738 45.1441C175.933 44.9489 176.182 44.8161 176.452 44.7626C176.723 44.709 177.004 44.7371 177.259 44.8433C177.513 44.9495 177.731 45.129 177.883 45.359C178.036 45.5891 178.117 45.8592 178.115 46.1352C178.114 46.5025 177.967 46.8542 177.708 47.1139C177.448 47.3736 177.096 47.5202 176.729 47.5219Z" fill="#FE2937"/>
<path d="M65.1804 17.9123C64.9044 17.9135 64.6342 17.8327 64.4042 17.6801C64.1742 17.5275 63.9947 17.31 63.8885 17.0553C63.7823 16.8005 63.7542 16.5199 63.8077 16.2491C63.8613 15.9784 63.994 15.7296 64.1892 15.5344C64.3844 15.3393 64.6332 15.2065 64.9039 15.1529C65.1747 15.0994 65.4553 15.1275 65.7101 15.2337C65.9648 15.3399 66.1823 15.5194 66.3349 15.7494C66.4875 15.9794 66.5683 16.2496 66.567 16.5256C66.5654 16.8929 66.4188 17.2446 66.1591 17.5043C65.8994 17.764 65.5476 17.9106 65.1804 17.9123Z" fill="#FE2937"/>
<path d="M65.1804 47.5219C64.9044 47.5231 64.6342 47.4423 64.4042 47.2897C64.1742 47.1372 63.9947 46.9197 63.8885 46.6649C63.7823 46.4101 63.7542 46.1295 63.8077 45.8588C63.8613 45.588 63.994 45.3392 64.1892 45.1441C64.3844 44.9489 64.6332 44.8161 64.9039 44.7626C65.1747 44.709 65.4553 44.7371 65.7101 44.8433C65.9648 44.9495 66.1823 45.129 66.3349 45.359C66.4875 45.5891 66.5683 45.8592 66.567 46.1352C66.5654 46.5025 66.4188 46.8542 66.1591 47.1139C65.8994 47.3736 65.5476 47.5202 65.1804 47.5219Z" fill="#FE2937"/>
<path d="M176.729 32.7077C176.453 32.7089 176.183 32.6281 175.953 32.4755C175.723 32.323 175.543 32.1055 175.437 31.8507C175.331 31.5959 175.303 31.3153 175.356 31.0446C175.41 30.7738 175.542 30.525 175.738 30.3298C175.933 30.1347 176.182 30.0019 176.452 29.9483C176.723 29.8948 177.004 29.9229 177.259 30.0291C177.513 30.1353 177.731 30.3148 177.883 30.5448C178.036 30.7748 178.117 31.045 178.115 31.321C178.114 31.6883 177.967 32.04 177.708 32.2997C177.448 32.5594 177.096 32.706 176.729 32.7077Z" fill="#FE2937"/>
<path d="M176.729 62.3173C176.453 62.3185 176.183 62.2377 175.953 62.0851C175.723 61.9326 175.543 61.7151 175.437 61.4603C175.331 61.2055 175.303 60.9249 175.356 60.6542C175.41 60.3834 175.542 60.1346 175.738 59.9395C175.933 59.7443 176.182 59.6115 176.452 59.558C176.723 59.5044 177.004 59.5325 177.259 59.6387C177.513 59.7449 177.731 59.9244 177.883 60.1544C178.036 60.3845 178.117 60.6546 178.115 60.9306C178.114 61.2979 177.967 61.6496 177.708 61.9093C177.448 62.169 177.096 62.3156 176.729 62.3173Z" fill="#FE2937"/>
<path d="M65.1804 32.7077C64.9044 32.7089 64.6342 32.6281 64.4042 32.4755C64.1742 32.323 63.9947 32.1055 63.8885 31.8507C63.7823 31.5959 63.7542 31.3153 63.8077 31.0446C63.8613 30.7738 63.994 30.525 64.1892 30.3298C64.3844 30.1347 64.6332 30.0019 64.9039 29.9483C65.1747 29.8948 65.4553 29.9229 65.7101 30.0291C65.9648 30.1353 66.1823 30.3148 66.3349 30.5448C66.4875 30.7748 66.5683 31.045 66.567 31.321C66.5654 31.6883 66.4188 32.04 66.1591 32.2997C65.8994 32.5594 65.5476 32.706 65.1804 32.7077Z" fill="#FE2937"/>
<path d="M65.1804 62.3173C64.9044 62.3185 64.6342 62.2377 64.4042 62.0851C64.1742 61.9326 63.9947 61.7151 63.8885 61.4603C63.7823 61.2055 63.7542 60.9249 63.8077 60.6542C63.8613 60.3834 63.994 60.1346 64.1892 59.9395C64.3844 59.7443 64.6332 59.6115 64.9039 59.558C65.1747 59.5044 65.4553 59.5325 65.7101 59.6387C65.9648 59.7449 66.1823 59.9244 66.3349 60.1544C66.4875 60.3845 66.5683 60.6546 66.567 60.9306C66.5654 61.2979 66.4188 61.6496 66.1591 61.9093C65.8994 62.169 65.5476 62.3156 65.1804 62.3173Z" fill="#FE2937"/>
<path d="M160.777 2.79838C160.502 2.79838 160.232 2.71671 160.003 2.56366C159.774 2.4106 159.596 2.19306 159.49 1.93854C159.385 1.68402 159.357 1.40394 159.411 1.13375C159.465 0.863552 159.598 0.615368 159.792 0.420567C159.987 0.225766 160.235 0.0930749 160.506 0.0393295C160.776 -0.0144159 161.056 0.0132015 161.31 0.118627C161.565 0.224052 161.782 0.402559 161.935 0.63162C162.089 0.860682 162.17 1.13 162.17 1.40549C162.17 1.77492 162.023 2.1292 161.762 2.39042C161.501 2.65164 161.147 2.79838 160.777 2.79838Z" fill="#FE2937"/>
<path d="M49.2288 2.79826C48.9533 2.79826 48.684 2.71659 48.455 2.56353C48.2259 2.41048 48.0474 2.19294 47.942 1.93842C47.8365 1.6839 47.8089 1.40382 47.8627 1.13363C47.9164 0.86343 48.0491 0.615246 48.2439 0.420445C48.4387 0.225644 48.6869 0.0929528 48.9571 0.0392074C49.2273 -0.014538 49.5074 0.0130794 49.7619 0.118505C50.0164 0.22393 50.2339 0.402437 50.387 0.631498C50.54 0.86056 50.6217 1.12988 50.6217 1.40537C50.6217 1.77479 50.475 2.12908 50.2138 2.3903C49.9525 2.65152 49.5982 2.79826 49.2288 2.79826Z" fill="#FE2937"/>
<path d="M160.777 17.9123C160.502 17.9123 160.232 17.8304 160.003 17.6771C159.774 17.5237 159.595 17.3058 159.49 17.0509C159.385 16.796 159.357 16.5157 159.412 16.2453C159.466 15.9749 159.599 15.7268 159.795 15.5322C159.99 15.3377 160.239 15.2055 160.509 15.1525C160.78 15.0994 161.06 15.1279 161.315 15.2343C161.569 15.3407 161.786 15.5202 161.938 15.7501C162.091 15.9799 162.171 16.2499 162.17 16.5256C162.169 16.894 162.021 17.2466 161.76 17.5065C161.499 17.7664 161.146 17.9123 160.777 17.9123Z" fill="#FE2937"/>
<path d="M160.777 47.5219C160.502 47.5219 160.232 47.44 160.003 47.2867C159.774 47.1334 159.595 46.9154 159.49 46.6605C159.385 46.4057 159.357 46.1253 159.412 45.8549C159.466 45.5845 159.599 45.3364 159.795 45.1418C159.99 44.9473 160.239 44.8151 160.509 44.7621C160.78 44.7091 161.06 44.7375 161.315 44.8439C161.569 44.9503 161.786 45.1298 161.938 45.3597C162.091 45.5896 162.171 45.8595 162.17 46.1352C162.169 46.5036 162.021 46.8563 161.76 47.1161C161.499 47.376 161.146 47.5219 160.777 47.5219Z" fill="#FE2937"/>
<path d="M49.2288 17.9123C48.9531 17.9123 48.6835 17.8304 48.4543 17.6771C48.2251 17.5237 48.0466 17.3058 47.9414 17.0509C47.8361 16.796 47.8089 16.5157 47.8632 16.2453C47.9174 15.9749 48.0507 15.7268 48.2461 15.5322C48.4415 15.3377 48.6903 15.2055 48.9609 15.1525C49.2315 15.0994 49.5118 15.1279 49.7662 15.2343C50.0206 15.3407 50.2377 15.5202 50.39 15.7501C50.5423 15.9799 50.623 16.2499 50.6217 16.5256C50.6201 16.894 50.4726 17.2466 50.2116 17.5065C49.9505 17.7664 49.5972 17.9123 49.2288 17.9123Z" fill="#FE2937"/>
<path d="M49.2288 47.5219C48.9531 47.5219 48.6835 47.44 48.4543 47.2867C48.2251 47.1334 48.0466 46.9154 47.9414 46.6605C47.8361 46.4057 47.8089 46.1253 47.8632 45.8549C47.9174 45.5845 48.0507 45.3364 48.2461 45.1418C48.4415 44.9473 48.6903 44.8151 48.9609 44.7621C49.2315 44.7091 49.5118 44.7375 49.7662 44.8439C50.0206 44.9503 50.2377 45.1298 50.39 45.3597C50.5423 45.5896 50.623 45.8595 50.6217 46.1352C50.6201 46.5036 50.4726 46.8563 50.2116 47.1161C49.9505 47.376 49.5972 47.5219 49.2288 47.5219Z" fill="#FE2937"/>
<path d="M160.777 32.7077C160.502 32.7077 160.232 32.6258 160.003 32.4725C159.774 32.3191 159.595 32.1012 159.49 31.8463C159.385 31.5915 159.357 31.3111 159.412 31.0407C159.466 30.7703 159.599 30.5222 159.795 30.3276C159.99 30.1331 160.239 30.0009 160.509 29.9479C160.78 29.8948 161.06 29.9233 161.315 30.0297C161.569 30.1361 161.786 30.3156 161.938 30.5455C162.091 30.7754 162.171 31.0453 162.17 31.321C162.169 31.6894 162.021 32.042 161.76 32.3019C161.499 32.5618 161.146 32.7077 160.777 32.7077Z" fill="#FE2937"/>
<path d="M160.777 62.3173C160.502 62.3173 160.232 62.2354 160.003 62.0821C159.774 61.9288 159.595 61.7108 159.49 61.456C159.385 61.2011 159.357 60.9207 159.412 60.6503C159.466 60.38 159.599 60.1318 159.795 59.9373C159.99 59.7427 160.239 59.6105 160.509 59.5575C160.78 59.5045 161.06 59.5329 161.315 59.6393C161.569 59.7457 161.786 59.9252 161.938 60.1551C162.091 60.385 162.171 60.6549 162.17 60.9306C162.169 61.299 162.021 61.6517 161.76 61.9115C161.499 62.1714 161.146 62.3173 160.777 62.3173Z" fill="#FE2937"/>
<path d="M49.2288 32.7077C48.9531 32.7077 48.6835 32.6258 48.4543 32.4725C48.2251 32.3191 48.0466 32.1012 47.9414 31.8463C47.8361 31.5915 47.8089 31.3111 47.8632 31.0407C47.9174 30.7703 48.0507 30.5222 48.2461 30.3276C48.4415 30.1331 48.6903 30.0009 48.9609 29.9479C49.2315 29.8948 49.5118 29.9233 49.7662 30.0297C50.0206 30.1361 50.2377 30.3156 50.39 30.5455C50.5423 30.7754 50.623 31.0453 50.6217 31.321C50.6201 31.6894 50.4726 32.042 50.2116 32.3019C49.9505 32.5618 49.5972 32.7077 49.2288 32.7077Z" fill="#FE2937"/>
<path d="M49.2288 62.3173C48.9531 62.3173 48.6835 62.2354 48.4543 62.0821C48.2251 61.9288 48.0466 61.7108 47.9414 61.456C47.8361 61.2011 47.8089 60.9207 47.8632 60.6503C47.9174 60.38 48.0507 60.1318 48.2461 59.9373C48.4415 59.7427 48.6903 59.6105 48.9609 59.5575C49.2315 59.5045 49.5118 59.5329 49.7662 59.6393C50.0206 59.7457 50.2377 59.9252 50.39 60.1551C50.5423 60.385 50.623 60.6549 50.6217 60.9306C50.6201 61.299 50.4726 61.6517 50.2116 61.9115C49.9505 62.1714 49.5972 62.3173 49.2288 62.3173Z" fill="#FE2937"/>
<path d="M143.445 1.38668C143.445 2.1525 144.066 2.77331 144.832 2.77331C145.598 2.77331 146.219 2.1525 146.219 1.38668C146.219 0.620847 145.598 3.34754e-08 144.832 0C144.066 -3.34754e-08 143.445 0.620847 143.445 1.38668Z" fill="#FE2937"/>
<path d="M31.8968 1.38668C31.8968 2.1525 32.5176 2.77331 33.2834 2.77331C34.0492 2.77331 34.6701 2.1525 34.6701 1.38668C34.6701 0.620847 34.0492 3.34754e-08 33.2834 0C32.5176 -3.34754e-08 31.8968 0.620847 31.8968 1.38668Z" fill="#FE2937"/>
<path d="M143.445 16.4945C143.445 17.2603 144.066 17.8811 144.832 17.8811C145.598 17.8811 146.219 17.2603 146.219 16.4945C146.219 15.7286 145.598 15.1078 144.832 15.1078C144.066 15.1078 143.445 15.7286 143.445 16.4945Z" fill="#FE2937"/>
<path d="M143.445 46.104C143.445 46.8698 144.066 47.4906 144.832 47.4906C145.598 47.4906 146.219 46.8698 146.219 46.104C146.219 45.3381 145.598 44.7173 144.832 44.7173C144.066 44.7173 143.445 45.3381 143.445 46.104Z" fill="#FE2937"/>
<path d="M31.8968 16.4945C31.8968 17.2603 32.5176 17.8811 33.2834 17.8811C34.0492 17.8811 34.6701 17.2603 34.6701 16.4945C34.6701 15.7286 34.0492 15.1078 33.2834 15.1078C32.5176 15.1078 31.8968 15.7286 31.8968 16.4945Z" fill="#FE2937"/>
<path d="M31.8968 46.104C31.8968 46.8698 32.5176 47.4906 33.2834 47.4906C34.0492 47.4906 34.6701 46.8698 34.6701 46.104C34.6701 45.3381 34.0492 44.7173 33.2834 44.7173C32.5176 44.7173 31.8968 45.3381 31.8968 46.104Z" fill="#FE2937"/>
<path d="M143.445 31.2898C143.445 32.0556 144.066 32.6764 144.832 32.6764C145.598 32.6764 146.219 32.0556 146.219 31.2898C146.219 30.5239 145.598 29.9031 144.832 29.9031C144.066 29.9031 143.445 30.5239 143.445 31.2898Z" fill="#FE2937"/>
<path d="M143.445 60.8994C143.445 61.6652 144.066 62.286 144.832 62.286C145.598 62.286 146.219 61.6652 146.219 60.8994C146.219 60.1335 145.598 59.5127 144.832 59.5127C144.066 59.5127 143.445 60.1335 143.445 60.8994Z" fill="#FE2937"/>
<path d="M31.8968 31.2898C31.8968 32.0556 32.5176 32.6764 33.2834 32.6764C34.0492 32.6764 34.6701 32.0556 34.6701 31.2898C34.6701 30.5239 34.0492 29.9031 33.2834 29.9031C32.5176 29.9031 31.8968 30.5239 31.8968 31.2898Z" fill="#FE2937"/>
<path d="M31.8968 60.8994C31.8968 61.6652 32.5176 62.286 33.2834 62.286C34.0492 62.286 34.6701 61.6652 34.6701 60.8994C34.6701 60.1335 34.0492 59.5127 33.2834 59.5127C32.5176 59.5127 31.8968 60.1335 31.8968 60.8994Z" fill="#FE2937"/>
<path d="M127.5 1.38668C127.5 2.1525 128.121 2.77331 128.887 2.77331C129.652 2.77331 130.273 2.1525 130.273 1.38668C130.273 0.620847 129.652 3.34754e-08 128.887 0C128.121 -3.34754e-08 127.5 0.620847 127.5 1.38668Z" fill="#FE2937"/>
<path d="M15.9515 1.38668C15.9515 2.1525 16.5723 2.77331 17.3381 2.77331C18.1039 2.77331 18.7248 2.1525 18.7248 1.38668C18.7248 0.620847 18.1039 3.34754e-08 17.3381 0C16.5723 -3.34754e-08 15.9515 0.620847 15.9515 1.38668Z" fill="#FE2937"/>
<path d="M127.5 16.4945C127.5 17.2603 128.121 17.8811 128.887 17.8811C129.652 17.8811 130.273 17.2603 130.273 16.4945C130.273 15.7286 129.652 15.1078 128.887 15.1078C128.121 15.1078 127.5 15.7286 127.5 16.4945Z" fill="#FE2937"/>
<path d="M127.5 46.104C127.5 46.8698 128.121 47.4906 128.887 47.4906C129.652 47.4906 130.273 46.8698 130.273 46.104C130.273 45.3381 129.652 44.7173 128.887 44.7173C128.121 44.7173 127.5 45.3381 127.5 46.104Z" fill="#FE2937"/>
<path d="M15.9515 16.4945C15.9515 17.2603 16.5723 17.8811 17.3381 17.8811C18.1039 17.8811 18.7248 17.2603 18.7248 16.4945C18.7248 15.7286 18.1039 15.1078 17.3381 15.1078C16.5723 15.1078 15.9515 15.7286 15.9515 16.4945Z" fill="#FE2937"/>
<path d="M15.9515 46.104C15.9515 46.8698 16.5723 47.4906 17.3381 47.4906C18.1039 47.4906 18.7248 46.8698 18.7248 46.104C18.7248 45.3381 18.1039 44.7173 17.3381 44.7173C16.5723 44.7173 15.9515 45.3381 15.9515 46.104Z" fill="#FE2937"/>
<path d="M127.5 31.2898C127.5 32.0556 128.121 32.6764 128.887 32.6764C129.652 32.6764 130.273 32.0556 130.273 31.2898C130.273 30.5239 129.652 29.9031 128.887 29.9031C128.121 29.9031 127.5 30.5239 127.5 31.2898Z" fill="#FE2937"/>
<path d="M127.5 60.8994C127.5 61.6652 128.121 62.286 128.887 62.286C129.652 62.286 130.273 61.6652 130.273 60.8994C130.273 60.1335 129.652 59.5127 128.887 59.5127C128.121 59.5127 127.5 60.1335 127.5 60.8994Z" fill="#FE2937"/>
<path d="M15.9515 31.2898C15.9515 32.0556 16.5723 32.6764 17.3381 32.6764C18.1039 32.6764 18.7248 32.0556 18.7248 31.2898C18.7248 30.5239 18.1039 29.9031 17.3381 29.9031C16.5723 29.9031 15.9515 30.5239 15.9515 31.2898Z" fill="#FE2937"/>
<path d="M15.9515 60.8994C15.9515 61.6652 16.5723 62.286 17.3381 62.286C18.1039 62.286 18.7248 61.6652 18.7248 60.8994C18.7248 60.1335 18.1039 59.5127 17.3381 59.5127C16.5723 59.5127 15.9515 60.1335 15.9515 60.8994Z" fill="#FE2937"/>
<path d="M112.941 2.79838C112.666 2.79838 112.397 2.71671 112.168 2.56366C111.939 2.4106 111.76 2.19306 111.655 1.93854C111.549 1.68402 111.522 1.40394 111.575 1.13375C111.629 0.863552 111.762 0.615368 111.957 0.420567C112.151 0.225766 112.4 0.0930749 112.67 0.0393295C112.94 -0.0144159 113.22 0.0132015 113.475 0.118627C113.729 0.224052 113.947 0.402559 114.1 0.63162C114.253 0.860682 114.334 1.13 114.334 1.40549C114.334 1.77492 114.188 2.1292 113.926 2.39042C113.665 2.65164 113.311 2.79838 112.941 2.79838Z" fill="#FE2937"/>
<path d="M1.39291 2.79826C1.11742 2.79826 0.848118 2.71659 0.619057 2.56353C0.389995 2.41048 0.211451 2.19294 0.106025 1.93842C0.000599816 1.6839 -0.0269792 1.40382 0.026766 1.13363C0.0805116 0.86343 0.213184 0.615246 0.407985 0.420445C0.602786 0.225644 0.850969 0.0929528 1.12117 0.0392074C1.39136 -0.014538 1.67142 0.0130794 1.92594 0.118505C2.18046 0.22393 2.398 0.402437 2.55105 0.631498C2.70411 0.86056 2.7858 1.12988 2.7858 1.40537C2.7858 1.77479 2.63906 2.12908 2.37784 2.3903C2.11662 2.65152 1.76233 2.79826 1.39291 2.79826Z" fill="#FE2937"/>
<path d="M112.941 17.9123C112.666 17.9123 112.396 17.8304 112.167 17.6771C111.938 17.5237 111.759 17.3058 111.654 17.0509C111.549 16.796 111.522 16.5157 111.576 16.2453C111.63 15.9749 111.763 15.7268 111.959 15.5322C112.154 15.3377 112.403 15.2055 112.674 15.1525C112.944 15.0994 113.224 15.1279 113.479 15.2343C113.733 15.3407 113.95 15.5202 114.103 15.7501C114.255 15.9799 114.336 16.2499 114.334 16.5256C114.333 16.894 114.185 17.2466 113.924 17.5065C113.663 17.7664 113.31 17.9123 112.941 17.9123Z" fill="#FE2937"/>
<path d="M112.941 47.5219C112.666 47.5219 112.396 47.44 112.167 47.2867C111.938 47.1334 111.759 46.9154 111.654 46.6605C111.549 46.4057 111.522 46.1253 111.576 45.8549C111.63 45.5845 111.763 45.3364 111.959 45.1418C112.154 44.9473 112.403 44.8151 112.674 44.7621C112.944 44.7091 113.224 44.7375 113.479 44.8439C113.733 44.9503 113.95 45.1298 114.103 45.3597C114.255 45.5896 114.336 45.8595 114.334 46.1352C114.333 46.5036 114.185 46.8563 113.924 47.1161C113.663 47.376 113.31 47.5219 112.941 47.5219Z" fill="#FE2937"/>
<path d="M1.3929 17.9123C1.11714 17.9123 0.84759 17.8304 0.618395 17.6771C0.3892 17.5237 0.210679 17.3058 0.10544 17.0509C0.000200465 16.796 -0.0270248 16.5157 0.0272288 16.2453C0.0814826 15.9749 0.214775 15.7268 0.410201 15.5322C0.605627 15.3377 0.854396 15.2055 1.125 15.1525C1.39561 15.0994 1.67586 15.1279 1.93027 15.2343C2.18468 15.3407 2.40179 15.5202 2.55409 15.7501C2.70639 15.9799 2.78702 16.2499 2.78579 16.5256C2.78414 16.894 2.63666 17.2466 2.37561 17.5065C2.11457 17.7664 1.76124 17.9123 1.3929 17.9123Z" fill="#FE2937"/>
<path d="M1.3929 47.5219C1.11714 47.5219 0.84759 47.44 0.618395 47.2867C0.3892 47.1334 0.210679 46.9154 0.10544 46.6605C0.000200465 46.4057 -0.0270248 46.1253 0.0272288 45.8549C0.0814826 45.5845 0.214775 45.3364 0.410201 45.1418C0.605627 44.9473 0.854396 44.8151 1.125 44.7621C1.39561 44.7091 1.67586 44.7375 1.93027 44.8439C2.18468 44.9503 2.40179 45.1298 2.55409 45.3597C2.70639 45.5896 2.78702 45.8595 2.78579 46.1352C2.78414 46.5036 2.63666 46.8563 2.37561 47.1161C2.11457 47.376 1.76124 47.5219 1.3929 47.5219Z" fill="#FE2937"/>
<path d="M112.941 32.7077C112.666 32.7077 112.396 32.6258 112.167 32.4725C111.938 32.3191 111.759 32.1012 111.654 31.8463C111.549 31.5915 111.522 31.3111 111.576 31.0407C111.63 30.7703 111.763 30.5222 111.959 30.3276C112.154 30.1331 112.403 30.0009 112.674 29.9479C112.944 29.8948 113.224 29.9233 113.479 30.0297C113.733 30.1361 113.95 30.3156 114.103 30.5455C114.255 30.7754 114.336 31.0453 114.334 31.321C114.333 31.6894 114.185 32.042 113.924 32.3019C113.663 32.5618 113.31 32.7077 112.941 32.7077Z" fill="#FE2937"/>
<path d="M112.941 62.3173C112.666 62.3173 112.396 62.2354 112.167 62.0821C111.938 61.9288 111.759 61.7108 111.654 61.456C111.549 61.2011 111.522 60.9207 111.576 60.6503C111.63 60.38 111.763 60.1318 111.959 59.9373C112.154 59.7427 112.403 59.6105 112.674 59.5575C112.944 59.5045 113.224 59.5329 113.479 59.6393C113.733 59.7457 113.95 59.9252 114.103 60.1551C114.255 60.385 114.336 60.6549 114.334 60.9306C114.333 61.299 114.185 61.6517 113.924 61.9115C113.663 62.1714 113.31 62.3173 112.941 62.3173Z" fill="#FE2937"/>
<path d="M1.3929 32.7077C1.11714 32.7077 0.84759 32.6258 0.618395 32.4725C0.3892 32.3191 0.210679 32.1012 0.10544 31.8463C0.000200465 31.5915 -0.0270248 31.3111 0.0272288 31.0407C0.0814826 30.7703 0.214775 30.5222 0.410201 30.3276C0.605627 30.1331 0.854396 30.0009 1.125 29.9479C1.39561 29.8948 1.67586 29.9233 1.93027 30.0297C2.18468 30.1361 2.40179 30.3156 2.55409 30.5455C2.70639 30.7754 2.78702 31.0453 2.78579 31.321C2.78414 31.6894 2.63666 32.042 2.37561 32.3019C2.11457 32.5618 1.76124 32.7077 1.3929 32.7077Z" fill="#FE2937"/>
<path d="M1.3929 62.3173C1.11714 62.3173 0.84759 62.2354 0.618395 62.0821C0.3892 61.9288 0.210679 61.7108 0.10544 61.456C0.000200465 61.2011 -0.0270248 60.9207 0.0272288 60.6503C0.0814826 60.38 0.214775 60.1318 0.410201 59.9373C0.605627 59.7427 0.854396 59.6105 1.125 59.5575C1.39561 59.5045 1.67586 59.5329 1.93027 59.6393C2.18468 59.7457 2.40179 59.9252 2.55409 60.1551C2.70639 60.385 2.78702 60.6549 2.78579 60.9306C2.78414 61.299 2.63666 61.6517 2.37561 61.9115C2.11457 62.1714 1.76124 62.3173 1.3929 62.3173Z" fill="#FE2937"/>
</svg>
