<svg xmlns="http://www.w3.org/2000/svg" width="225" height="2.8" viewBox="0 0 225 2.8"><path d="M207.9,0a1.38,1.38,0,1,0,1.38,1.38A1.38,1.38,0,0,0,207.9,0Z" fill="#fe2937"/><path d="M223.62,0A1.38,1.38,0,1,0,225,1.38,1.38,1.38,0,0,0,223.62,0Z" fill="#fe2937"/><path d="M96.73,0a1.38,1.38,0,1,0,1.38,1.38A1.38,1.38,0,0,0,96.73,0Z" fill="#fe2937"/><path d="M192,0a1.38,1.38,0,1,0,1.38,1.38A1.38,1.38,0,0,0,192,0Z" fill="#fe2937"/><path d="M80.84,0a1.38,1.38,0,1,0,1.38,1.38A1.38,1.38,0,0,0,80.84,0Z" fill="#fe2937"/><path d="M176.65.13a1.29,1.29,0,0,0-.8-.08,1.3,1.3,0,0,0-.71.38,1.3,1.3,0,0,0-.38.71,1.29,1.29,0,0,0,.08.8,1.29,1.29,0,0,0,.51.62,1.35,1.35,0,0,0,.77.24,1.43,1.43,0,0,0,1-.41,1.43,1.43,0,0,0,.41-1,1.35,1.35,0,0,0-.24-.77A1.29,1.29,0,0,0,176.65.13Z" fill="#fe2937"/><path d="M65.49.13a1.33,1.33,0,0,0-.81-.08A1.3,1.3,0,0,0,64,.43a1.38,1.38,0,0,0-.3,1.51,1.35,1.35,0,0,0,.51.62A1.36,1.36,0,0,0,65,2.8a1.42,1.42,0,0,0,1-.41,1.39,1.39,0,0,0,.41-1,1.42,1.42,0,0,0-.23-.77A1.34,1.34,0,0,0,65.49.13Z" fill="#fe2937"/><path d="M160.76.13a1.29,1.29,0,0,0-.8-.08,1.36,1.36,0,0,0-.71.37,1.38,1.38,0,0,0-.38.71,1.4,1.4,0,0,0,.07.81,1.43,1.43,0,0,0,.52.62,1.38,1.38,0,0,0,.77.24,1.4,1.4,0,0,0,1-.41,1.38,1.38,0,0,0,.4-1,1.27,1.27,0,0,0-.23-.77A1.29,1.29,0,0,0,160.76.13Z" fill="#fe2937"/><path d="M49.6.13a1.33,1.33,0,0,0-.81-.08,1.39,1.39,0,0,0-.71.37,1.45,1.45,0,0,0-.38.71,1.41,1.41,0,0,0,.08.81,1.34,1.34,0,0,0,.51.62,1.43,1.43,0,0,0,.77.24,1.4,1.4,0,0,0,1.39-1.39,1.42,1.42,0,0,0-.23-.77A1.34,1.34,0,0,0,49.6.13Z" fill="#fe2937"/><path d="M144.34,0a1.38,1.38,0,1,0,1.38,1.38A1.38,1.38,0,0,0,144.34,0Z" fill="#fe2937"/><path d="M33.17,0a1.38,1.38,0,1,0,1.38,1.38A1.38,1.38,0,0,0,33.17,0Z" fill="#fe2937"/><path d="M128.45,0a1.38,1.38,0,1,0,1.38,1.38A1.38,1.38,0,0,0,128.45,0Z" fill="#fe2937"/><path d="M17.28,0a1.38,1.38,0,1,0,1.38,1.38A1.38,1.38,0,0,0,17.28,0Z" fill="#fe2937"/><path d="M113.09.13a1.29,1.29,0,0,0-.8-.08,1.42,1.42,0,0,0-.72.37,1.54,1.54,0,0,0-.38.71,1.5,1.5,0,0,0,.08.81,1.4,1.4,0,0,0,.51.62,1.43,1.43,0,0,0,.77.24,1.4,1.4,0,0,0,1.39-1.39,1.42,1.42,0,0,0-.23-.77A1.34,1.34,0,0,0,113.09.13Z" fill="#fe2937"/><path d="M1.92.13a1.29,1.29,0,0,0-.8-.08A1.36,1.36,0,0,0,.41.42,1.38,1.38,0,0,0,0,1.13a1.33,1.33,0,0,0,.08.81,1.34,1.34,0,0,0,.51.62,1.37,1.37,0,0,0,1.75-.17,1.43,1.43,0,0,0,.41-1A1.42,1.42,0,0,0,2.55.64,1.37,1.37,0,0,0,1.92.13Z" fill="#fe2937"/></svg>