<svg width="63" height="226" viewBox="0 0 63 226" fill="none" xmlns="http://www.w3.org/2000/svg">
<path d="M1.38668 18.5467C2.1525 18.5467 2.77331 17.9259 2.77331 17.1601C2.77331 16.3943 2.1525 15.7734 1.38668 15.7734C0.620847 15.7734 0 16.3943 0 17.1601C0 17.9259 0.620847 18.5467 1.38668 18.5467Z" fill="#FE2937"/>
<path d="M1.38668 2.7733C2.1525 2.7733 2.77331 2.15249 2.77331 1.38666C2.77331 0.620828 2.1525 0 1.38668 0C0.620847 0 0 0.620828 0 1.38666C0 2.15249 0.620847 2.7733 1.38668 2.7733Z" fill="#FE2937"/>
<path d="M1.38668 130.094C2.1525 130.094 2.77331 129.473 2.77331 128.707C2.77331 127.941 2.1525 127.32 1.38668 127.32C0.620847 127.32 0 127.941 0 128.707C0 129.473 0.620847 130.094 1.38668 130.094Z" fill="#FE2937"/>
<path d="M16.4941 18.5467C17.2599 18.5467 17.8807 17.9259 17.8807 17.1601C17.8807 16.3943 17.2599 15.7734 16.4941 15.7734C15.7283 15.7734 15.1074 16.3943 15.1074 17.1601C15.1074 17.9259 15.7283 18.5467 16.4941 18.5467Z" fill="#FE2937"/>
<path d="M16.4941 2.7733C17.2599 2.7733 17.8807 2.15249 17.8807 1.38666C17.8807 0.620828 17.2599 0 16.4941 0C15.7283 0 15.1074 0.620828 15.1074 1.38666C15.1074 2.15249 15.7283 2.7733 16.4941 2.7733Z" fill="#FE2937"/>
<path d="M46.1035 18.5467C46.8693 18.5467 47.4901 17.9259 47.4901 17.1601C47.4901 16.3943 46.8693 15.7734 46.1035 15.7734C45.3376 15.7734 44.7168 16.3943 44.7168 17.1601C44.7168 17.9259 45.3376 18.5467 46.1035 18.5467Z" fill="#FE2937"/>
<path d="M46.1035 2.7733C46.8693 2.7733 47.4901 2.15249 47.4901 1.38666C47.4901 0.620828 46.8693 0 46.1035 0C45.3376 0 44.7168 0.620828 44.7168 1.38666C44.7168 2.15249 45.3376 2.7733 46.1035 2.7733Z" fill="#FE2937"/>
<path d="M16.4941 130.094C17.2599 130.094 17.8807 129.473 17.8807 128.707C17.8807 127.941 17.2599 127.32 16.4941 127.32C15.7283 127.32 15.1074 127.941 15.1074 128.707C15.1074 129.473 15.7283 130.094 16.4941 130.094Z" fill="#FE2937"/>
<path d="M46.1035 130.094C46.8693 130.094 47.4901 129.473 47.4901 128.707C47.4901 127.941 46.8693 127.32 46.1035 127.32C45.3376 127.32 44.7168 127.941 44.7168 128.707C44.7168 129.473 45.3376 130.094 46.1035 130.094Z" fill="#FE2937"/>
<path d="M31.29 18.5467C32.0558 18.5467 32.6766 17.9259 32.6766 17.1601C32.6766 16.3943 32.0558 15.7734 31.29 15.7734C30.5242 15.7734 29.9033 16.3943 29.9033 17.1601C29.9033 17.9259 30.5242 18.5467 31.29 18.5467Z" fill="#FE2937"/>
<path d="M31.29 2.7733C32.0558 2.7733 32.6766 2.15249 32.6766 1.38666C32.6766 0.620828 32.0558 0 31.29 0C30.5242 0 29.9033 0.620828 29.9033 1.38666C29.9033 2.15249 30.5242 2.7733 31.29 2.7733Z" fill="#FE2937"/>
<path d="M60.8994 18.5467C61.6652 18.5467 62.286 17.9259 62.286 17.1601C62.286 16.3943 61.6652 15.7734 60.8994 15.7734C60.1335 15.7734 59.5127 16.3943 59.5127 17.1601C59.5127 17.9259 60.1335 18.5467 60.8994 18.5467Z" fill="#FE2937"/>
<path d="M60.8994 2.7733C61.6652 2.7733 62.286 2.15249 62.286 1.38666C62.286 0.620828 61.6652 0 60.8994 0C60.1335 0 59.5127 0.620828 59.5127 1.38666C59.5127 2.15249 60.1335 2.7733 60.8994 2.7733Z" fill="#FE2937"/>
<path d="M31.29 130.094C32.0558 130.094 32.6766 129.473 32.6766 128.707C32.6766 127.941 32.0558 127.32 31.29 127.32C30.5242 127.32 29.9033 127.941 29.9033 128.707C29.9033 129.473 30.5242 130.094 31.29 130.094Z" fill="#FE2937"/>
<path d="M60.8994 130.094C61.6652 130.094 62.286 129.473 62.286 128.707C62.286 127.941 61.6652 127.32 60.8994 127.32C60.1335 127.32 59.5127 127.941 59.5127 128.707C59.5127 129.473 60.1335 130.094 60.8994 130.094Z" fill="#FE2937"/>
<path d="M1.38668 34.4921C2.1525 34.4921 2.77331 33.8712 2.77331 33.1054C2.77331 32.3396 2.1525 31.7188 1.38668 31.7188C0.620847 31.7188 0 32.3396 0 33.1054C0 33.8712 0.620847 34.4921 1.38668 34.4921Z" fill="#FE2937"/>
<path d="M1.38668 146.039C2.1525 146.039 2.77331 145.418 2.77331 144.652C2.77331 143.886 2.1525 143.266 1.38668 143.266C0.620847 143.266 0 143.886 0 144.652C0 145.418 0.620847 146.039 1.38668 146.039Z" fill="#FE2937"/>
<path d="M16.4941 34.4921C17.2599 34.4921 17.8807 33.8712 17.8807 33.1054C17.8807 32.3396 17.2599 31.7188 16.4941 31.7188C15.7283 31.7188 15.1074 32.3396 15.1074 33.1054C15.1074 33.8712 15.7283 34.4921 16.4941 34.4921Z" fill="#FE2937"/>
<path d="M46.1035 34.4921C46.8693 34.4921 47.4901 33.8712 47.4901 33.1054C47.4901 32.3396 46.8693 31.7188 46.1035 31.7188C45.3376 31.7188 44.7168 32.3396 44.7168 33.1054C44.7168 33.8712 45.3376 34.4921 46.1035 34.4921Z" fill="#FE2937"/>
<path d="M16.4941 146.039C17.2599 146.039 17.8807 145.418 17.8807 144.652C17.8807 143.886 17.2599 143.266 16.4941 143.266C15.7283 143.266 15.1074 143.886 15.1074 144.652C15.1074 145.418 15.7283 146.039 16.4941 146.039Z" fill="#FE2937"/>
<path d="M46.1035 146.039C46.8693 146.039 47.4901 145.418 47.4901 144.652C47.4901 143.886 46.8693 143.266 46.1035 143.266C45.3376 143.266 44.7168 143.886 44.7168 144.652C44.7168 145.418 45.3376 146.039 46.1035 146.039Z" fill="#FE2937"/>
<path d="M31.29 34.4921C32.0558 34.4921 32.6766 33.8712 32.6766 33.1054C32.6766 32.3396 32.0558 31.7188 31.29 31.7188C30.5242 31.7188 29.9033 32.3396 29.9033 33.1054C29.9033 33.8712 30.5242 34.4921 31.29 34.4921Z" fill="#FE2937"/>
<path d="M60.8994 34.4921C61.6652 34.4921 62.286 33.8712 62.286 33.1054C62.286 32.3396 61.6652 31.7188 60.8994 31.7188C60.1335 31.7188 59.5127 32.3396 59.5127 33.1054C59.5127 33.8712 60.1335 34.4921 60.8994 34.4921Z" fill="#FE2937"/>
<path d="M31.29 146.039C32.0558 146.039 32.6766 145.418 32.6766 144.652C32.6766 143.886 32.0558 143.266 31.29 143.266C30.5242 143.266 29.9033 143.886 29.9033 144.652C29.9033 145.418 30.5242 146.039 31.29 146.039Z" fill="#FE2937"/>
<path d="M60.8994 146.039C61.6652 146.039 62.286 145.418 62.286 144.652C62.286 143.886 61.6652 143.266 60.8994 143.266C60.1335 143.266 59.5127 143.886 59.5127 144.652C59.5127 145.418 60.1335 146.039 60.8994 146.039Z" fill="#FE2937"/>
<path d="M2.79848 49.0429C2.79972 49.3187 2.71907 49.5886 2.56677 49.8185C2.41447 50.0483 2.19736 50.2278 1.94295 50.3342C1.68854 50.4406 1.4083 50.4691 1.1377 50.416C0.867091 50.363 0.618303 50.2308 0.422877 50.0363C0.227451 49.8417 0.0941773 49.5936 0.0399236 49.3232C-0.01433 49.0528 0.012876 48.7724 0.118115 48.5176C0.223355 48.2627 0.401876 48.0448 0.631071 47.8914C0.860266 47.7381 1.12984 47.6563 1.40559 47.6563C1.77393 47.6562 2.12727 47.8021 2.38831 48.062C2.64935 48.3219 2.79683 48.6746 2.79848 49.0429Z" fill="#FE2937"/>
<path d="M2.79848 160.594C2.79972 160.869 2.71907 161.139 2.56677 161.369C2.41447 161.599 2.19736 161.779 1.94295 161.885C1.68854 161.991 1.4083 162.02 1.1377 161.967C0.867091 161.914 0.618303 161.782 0.422877 161.587C0.227451 161.393 0.0941773 161.144 0.0399236 160.874C-0.01433 160.604 0.012876 160.323 0.118115 160.068C0.223355 159.813 0.401876 159.596 0.631071 159.442C0.860266 159.289 1.12984 159.207 1.40559 159.207C1.77393 159.207 2.12727 159.353 2.38831 159.613C2.64935 159.873 2.79683 160.225 2.79848 160.594Z" fill="#FE2937"/>
<path d="M17.9118 49.0429C17.913 49.3189 17.8322 49.5891 17.6796 49.8191C17.5271 50.0491 17.3096 50.2286 17.0548 50.3348C16.8 50.441 16.5194 50.4691 16.2487 50.4156C15.9779 50.362 15.7291 50.2293 15.5339 50.0341C15.3388 49.8389 15.206 49.5901 15.1524 49.3194C15.0989 49.0486 15.127 48.768 15.2332 48.5132C15.3394 48.2585 15.5189 48.041 15.7489 47.8884C15.9789 47.7358 16.2491 47.655 16.5251 47.6563C16.8924 47.6579 17.2441 47.8045 17.5038 48.0642C17.7635 48.3239 17.9101 48.6757 17.9118 49.0429Z" fill="#FE2937"/>
<path d="M47.5221 49.0429C47.5234 49.3189 47.4426 49.5891 47.29 49.8191C47.1374 50.0491 46.9199 50.2286 46.6651 50.3348C46.4104 50.441 46.1298 50.4691 45.859 50.4156C45.5882 50.362 45.3395 50.2293 45.1443 50.0341C44.9491 49.8389 44.8163 49.5901 44.7628 49.3194C44.7092 49.0486 44.7373 48.768 44.8435 48.5132C44.9497 48.2585 45.1293 48.041 45.3593 47.8884C45.5893 47.7358 45.8595 47.655 46.1355 47.6563C46.5027 47.6579 46.8545 47.8045 47.1142 48.0642C47.3738 48.3239 47.5205 48.6757 47.5221 49.0429Z" fill="#FE2937"/>
<path d="M17.9118 160.594C17.913 160.87 17.8322 161.14 17.6796 161.37C17.5271 161.6 17.3096 161.779 17.0548 161.886C16.8 161.992 16.5194 162.02 16.2487 161.966C15.9779 161.913 15.7291 161.78 15.5339 161.585C15.3388 161.39 15.206 161.141 15.1524 160.87C15.0989 160.599 15.127 160.319 15.2332 160.064C15.3394 159.809 15.5189 159.592 15.7489 159.439C15.9789 159.287 16.2491 159.206 16.5251 159.207C16.8924 159.209 17.2441 159.355 17.5038 159.615C17.7635 159.875 17.9101 160.226 17.9118 160.594Z" fill="#FE2937"/>
<path d="M47.5221 160.594C47.5234 160.87 47.4426 161.14 47.29 161.37C47.1374 161.6 46.9199 161.779 46.6651 161.886C46.4104 161.992 46.1298 162.02 45.859 161.966C45.5882 161.913 45.3395 161.78 45.1443 161.585C44.9491 161.39 44.8163 161.141 44.7628 160.87C44.7092 160.599 44.7373 160.319 44.8435 160.064C44.9497 159.809 45.1293 159.592 45.3593 159.439C45.5893 159.287 45.8595 159.206 46.1355 159.207C46.5027 159.209 46.8545 159.355 47.1142 159.615C47.3738 159.875 47.5205 160.226 47.5221 160.594Z" fill="#FE2937"/>
<path d="M32.7077 49.0429C32.7089 49.3189 32.6281 49.5891 32.4755 49.8191C32.3229 50.0491 32.1055 50.2286 31.8507 50.3348C31.5959 50.441 31.3153 50.4691 31.0446 50.4156C30.7738 50.362 30.525 50.2293 30.3298 50.0341C30.1347 49.8389 30.0019 49.5901 29.9483 49.3194C29.8948 49.0486 29.9229 48.768 30.0291 48.5132C30.1353 48.2585 30.3148 48.041 30.5448 47.8884C30.7748 47.7358 31.045 47.655 31.321 47.6563C31.6883 47.6579 32.04 47.8045 32.2997 48.0642C32.5594 48.3239 32.706 48.6757 32.7077 49.0429Z" fill="#FE2937"/>
<path d="M62.317 49.0429C62.3183 49.3189 62.2375 49.5891 62.0849 49.8191C61.9323 50.0491 61.7148 50.2286 61.4601 50.3348C61.2053 50.441 60.9247 50.4691 60.6539 50.4156C60.3831 50.362 60.1344 50.2293 59.9392 50.0341C59.744 49.8389 59.6113 49.5901 59.5577 49.3194C59.5042 49.0486 59.5323 48.768 59.6385 48.5132C59.7447 48.2585 59.9242 48.041 60.1542 47.8884C60.3842 47.7358 60.6544 47.655 60.9304 47.6563C61.2977 47.6579 61.6494 47.8045 61.9091 48.0642C62.1688 48.3239 62.3154 48.6757 62.317 49.0429Z" fill="#FE2937"/>
<path d="M32.7077 160.594C32.7089 160.87 32.6281 161.14 32.4755 161.37C32.3229 161.6 32.1055 161.779 31.8507 161.886C31.5959 161.992 31.3153 162.02 31.0446 161.966C30.7738 161.913 30.525 161.78 30.3298 161.585C30.1347 161.39 30.0019 161.141 29.9483 160.87C29.8948 160.599 29.9229 160.319 30.0291 160.064C30.1353 159.809 30.3148 159.592 30.5448 159.439C30.7748 159.287 31.045 159.206 31.321 159.207C31.6883 159.209 32.04 159.355 32.2997 159.615C32.5594 159.875 32.706 160.226 32.7077 160.594Z" fill="#FE2937"/>
<path d="M62.317 160.594C62.3183 160.87 62.2375 161.14 62.0849 161.37C61.9323 161.6 61.7148 161.779 61.4601 161.886C61.2053 161.992 60.9247 162.02 60.6539 161.966C60.3831 161.913 60.1344 161.78 59.9392 161.585C59.744 161.39 59.6113 161.141 59.5577 160.87C59.5042 160.599 59.5323 160.319 59.6385 160.064C59.7447 159.809 59.9242 159.592 60.1542 159.439C60.3842 159.287 60.6544 159.206 60.9304 159.207C61.2977 159.209 61.6494 159.355 61.9091 159.615C62.1688 159.875 62.3154 160.226 62.317 160.594Z" fill="#FE2937"/>
<path d="M2.79851 64.9945C2.79851 65.27 2.71683 65.5393 2.56378 65.7683C2.41072 65.9974 2.19318 66.1759 1.93866 66.2813C1.68414 66.3868 1.40407 66.4144 1.13387 66.3606C0.863674 66.3069 0.61549 66.1742 0.420689 65.9794C0.225888 65.7846 0.093197 65.5364 0.0394516 65.2662C-0.0142939 64.996 0.0133235 64.7159 0.118749 64.4614C0.224174 64.2069 0.402681 63.9894 0.631742 63.8363C0.860804 63.6833 1.13013 63.6016 1.40562 63.6016C1.77504 63.6016 2.12932 63.7483 2.39054 64.0095C2.65176 64.2708 2.79851 64.6251 2.79851 64.9945Z" fill="#FE2937"/>
<path d="M2.79851 176.545C2.79851 176.821 2.71683 177.09 2.56378 177.319C2.41072 177.548 2.19318 177.727 1.93866 177.832C1.68414 177.938 1.40407 177.965 1.13387 177.911C0.863674 177.858 0.61549 177.725 0.420689 177.53C0.225888 177.335 0.093197 177.087 0.0394516 176.817C-0.0142939 176.547 0.0133235 176.267 0.118749 176.012C0.224174 175.758 0.402681 175.54 0.631742 175.387C0.860804 175.234 1.13013 175.152 1.40562 175.152C1.77504 175.152 2.12932 175.299 2.39054 175.56C2.65176 175.822 2.79851 176.176 2.79851 176.545Z" fill="#FE2937"/>
<path d="M17.9118 64.9945C17.9118 65.2702 17.8299 65.5398 17.6766 65.769C17.5232 65.9982 17.3053 66.1767 17.0504 66.2819C16.7956 66.3872 16.5152 66.4144 16.2448 66.3601C15.9744 66.3059 15.7263 66.1726 15.5317 65.9772C15.3372 65.7818 15.205 65.533 15.152 65.2624C15.0989 64.9918 15.1274 64.7115 15.2338 64.4571C15.3402 64.2027 15.5197 63.9856 15.7496 63.8333C15.9795 63.681 16.2494 63.6003 16.5251 63.6016C16.8935 63.6032 17.2461 63.7507 17.506 64.0118C17.7659 64.2728 17.9118 64.6261 17.9118 64.9945Z" fill="#FE2937"/>
<path d="M47.5221 64.9945C47.5221 65.2702 47.4403 65.5398 47.2869 65.769C47.1336 65.9982 46.9157 66.1767 46.6608 66.2819C46.4059 66.3872 46.1255 66.4144 45.8552 66.3601C45.5848 66.3059 45.3366 66.1726 45.1421 65.9772C44.9475 65.7818 44.8154 65.533 44.7623 65.2624C44.7093 64.9918 44.7378 64.7115 44.8442 64.4571C44.9505 64.2027 45.13 63.9856 45.3599 63.8333C45.5898 63.681 45.8597 63.6003 46.1355 63.6016C46.5038 63.6032 46.8565 63.7507 47.1164 64.0118C47.3762 64.2728 47.5221 64.6261 47.5221 64.9945Z" fill="#FE2937"/>
<path d="M17.9118 176.545C17.9118 176.821 17.8299 177.091 17.6766 177.32C17.5232 177.549 17.3053 177.727 17.0504 177.833C16.7956 177.938 16.5152 177.965 16.2448 177.911C15.9744 177.857 15.7263 177.723 15.5317 177.528C15.3372 177.333 15.205 177.084 15.152 176.813C15.0989 176.543 15.1274 176.262 15.2338 176.008C15.3402 175.753 15.5197 175.536 15.7496 175.384C15.9795 175.232 16.2494 175.151 16.5251 175.152C16.8935 175.154 17.2461 175.301 17.506 175.563C17.7659 175.824 17.9118 176.177 17.9118 176.545Z" fill="#FE2937"/>
<path d="M47.5221 176.545C47.5221 176.821 47.4403 177.091 47.2869 177.32C47.1336 177.549 46.9157 177.727 46.6608 177.833C46.4059 177.938 46.1255 177.965 45.8552 177.911C45.5848 177.857 45.3366 177.723 45.1421 177.528C44.9475 177.333 44.8154 177.084 44.7623 176.813C44.7093 176.543 44.7378 176.262 44.8442 176.008C44.9505 175.753 45.13 175.536 45.3599 175.384C45.5898 175.232 45.8597 175.151 46.1355 175.152C46.5038 175.154 46.8565 175.301 47.1164 175.563C47.3762 175.824 47.5221 176.177 47.5221 176.545Z" fill="#FE2937"/>
<path d="M32.7077 64.9945C32.7077 65.2702 32.6258 65.5398 32.4725 65.769C32.3191 65.9982 32.1012 66.1767 31.8463 66.2819C31.5915 66.3872 31.3111 66.4144 31.0407 66.3601C30.7703 66.3059 30.5222 66.1726 30.3276 65.9772C30.1331 65.7818 30.0009 65.533 29.9479 65.2624C29.8948 64.9918 29.9233 64.7115 30.0297 64.4571C30.1361 64.2027 30.3156 63.9856 30.5455 63.8333C30.7754 63.681 31.0453 63.6003 31.321 63.6016C31.6894 63.6032 32.042 63.7507 32.3019 64.0118C32.5618 64.2728 32.7077 64.6261 32.7077 64.9945Z" fill="#FE2937"/>
<path d="M62.317 64.9945C62.317 65.2702 62.2352 65.5398 62.0819 65.769C61.9285 65.9982 61.7106 66.1767 61.4557 66.2819C61.2008 66.3872 60.9204 66.4144 60.6501 66.3601C60.3797 66.3059 60.1316 66.1726 59.937 65.9772C59.7425 65.7818 59.6103 65.533 59.5573 65.2624C59.5042 64.9918 59.5327 64.7115 59.6391 64.4571C59.7455 64.2027 59.925 63.9856 60.1548 63.8333C60.3847 63.681 60.6546 63.6003 60.9304 63.6016C61.2987 63.6032 61.6514 63.7507 61.9113 64.0118C62.1712 64.2728 62.317 64.6261 62.317 64.9945Z" fill="#FE2937"/>
<path d="M32.7077 176.545C32.7077 176.821 32.6258 177.091 32.4725 177.32C32.3191 177.549 32.1012 177.727 31.8463 177.833C31.5915 177.938 31.3111 177.965 31.0407 177.911C30.7703 177.857 30.5222 177.723 30.3276 177.528C30.1331 177.333 30.0009 177.084 29.9479 176.813C29.8948 176.543 29.9233 176.262 30.0297 176.008C30.1361 175.753 30.3156 175.536 30.5455 175.384C30.7754 175.232 31.0453 175.151 31.321 175.152C31.6894 175.154 32.042 175.301 32.3019 175.563C32.5618 175.824 32.7077 176.177 32.7077 176.545Z" fill="#FE2937"/>
<path d="M62.317 176.545C62.317 176.821 62.2352 177.091 62.0819 177.32C61.9285 177.549 61.7106 177.727 61.4557 177.833C61.2008 177.938 60.9204 177.965 60.6501 177.911C60.3797 177.857 60.1316 177.723 59.937 177.528C59.7425 177.333 59.6103 177.084 59.5573 176.813C59.5042 176.543 59.5327 176.262 59.6391 176.008C59.7455 175.753 59.925 175.536 60.1548 175.384C60.3847 175.232 60.6546 175.151 60.9304 175.152C61.2987 175.154 61.6514 175.301 61.9113 175.563C62.1712 175.824 62.317 176.177 62.317 176.545Z" fill="#FE2937"/>
<path d="M1.38668 82.328C2.1525 82.328 2.77331 81.7072 2.77331 80.9413C2.77331 80.1755 2.1525 79.5547 1.38668 79.5547C0.620847 79.5547 0 80.1755 0 80.9413C0 81.7072 0.620847 82.328 1.38668 82.328Z" fill="#FE2937"/>
<path d="M1.38668 193.875C2.1525 193.875 2.77331 193.254 2.77331 192.488C2.77331 191.722 2.1525 191.102 1.38668 191.102C0.620847 191.102 0 191.722 0 192.488C0 193.254 0.620847 193.875 1.38668 193.875Z" fill="#FE2937"/>
<path d="M16.4941 82.328C17.2599 82.328 17.8807 81.7072 17.8807 80.9413C17.8807 80.1755 17.2599 79.5547 16.4941 79.5547C15.7283 79.5547 15.1074 80.1755 15.1074 80.9413C15.1074 81.7072 15.7283 82.328 16.4941 82.328Z" fill="#FE2937"/>
<path d="M46.1035 82.328C46.8693 82.328 47.4901 81.7072 47.4901 80.9413C47.4901 80.1755 46.8693 79.5547 46.1035 79.5547C45.3376 79.5547 44.7168 80.1755 44.7168 80.9413C44.7168 81.7072 45.3376 82.328 46.1035 82.328Z" fill="#FE2937"/>
<path d="M16.4941 193.875C17.2599 193.875 17.8807 193.254 17.8807 192.488C17.8807 191.722 17.2599 191.102 16.4941 191.102C15.7283 191.102 15.1074 191.722 15.1074 192.488C15.1074 193.254 15.7283 193.875 16.4941 193.875Z" fill="#FE2937"/>
<path d="M46.1035 193.875C46.8693 193.875 47.4901 193.254 47.4901 192.488C47.4901 191.722 46.8693 191.102 46.1035 191.102C45.3376 191.102 44.7168 191.722 44.7168 192.488C44.7168 193.254 45.3376 193.875 46.1035 193.875Z" fill="#FE2937"/>
<path d="M31.29 82.328C32.0558 82.328 32.6766 81.7072 32.6766 80.9413C32.6766 80.1755 32.0558 79.5547 31.29 79.5547C30.5242 79.5547 29.9033 80.1755 29.9033 80.9413C29.9033 81.7072 30.5242 82.328 31.29 82.328Z" fill="#FE2937"/>
<path d="M60.8994 82.328C61.6652 82.328 62.286 81.7072 62.286 80.9413C62.286 80.1755 61.6652 79.5547 60.8994 79.5547C60.1335 79.5547 59.5127 80.1755 59.5127 80.9413C59.5127 81.7072 60.1335 82.328 60.8994 82.328Z" fill="#FE2937"/>
<path d="M31.29 193.875C32.0558 193.875 32.6766 193.254 32.6766 192.488C32.6766 191.722 32.0558 191.102 31.29 191.102C30.5242 191.102 29.9033 191.722 29.9033 192.488C29.9033 193.254 30.5242 193.875 31.29 193.875Z" fill="#FE2937"/>
<path d="M60.8994 193.875C61.6652 193.875 62.286 193.254 62.286 192.488C62.286 191.722 61.6652 191.102 60.8994 191.102C60.1335 191.102 59.5127 191.722 59.5127 192.488C59.5127 193.254 60.1335 193.875 60.8994 193.875Z" fill="#FE2937"/>
<path d="M1.38668 98.2733C2.1525 98.2733 2.77331 97.6525 2.77331 96.8867C2.77331 96.1208 2.1525 95.5 1.38668 95.5C0.620847 95.5 0 96.1208 0 96.8867C0 97.6525 0.620847 98.2733 1.38668 98.2733Z" fill="#FE2937"/>
<path d="M1.38668 209.82C2.1525 209.82 2.77331 209.199 2.77331 208.434C2.77331 207.668 2.1525 207.047 1.38668 207.047C0.620847 207.047 0 207.668 0 208.434C0 209.199 0.620847 209.82 1.38668 209.82Z" fill="#FE2937"/>
<path d="M16.4941 98.2733C17.2599 98.2733 17.8807 97.6525 17.8807 96.8867C17.8807 96.1208 17.2599 95.5 16.4941 95.5C15.7283 95.5 15.1074 96.1208 15.1074 96.8867C15.1074 97.6525 15.7283 98.2733 16.4941 98.2733Z" fill="#FE2937"/>
<path d="M46.1035 98.2733C46.8693 98.2733 47.4901 97.6525 47.4901 96.8867C47.4901 96.1208 46.8693 95.5 46.1035 95.5C45.3376 95.5 44.7168 96.1208 44.7168 96.8867C44.7168 97.6525 45.3376 98.2733 46.1035 98.2733Z" fill="#FE2937"/>
<path d="M16.4941 209.82C17.2599 209.82 17.8807 209.199 17.8807 208.434C17.8807 207.668 17.2599 207.047 16.4941 207.047C15.7283 207.047 15.1074 207.668 15.1074 208.434C15.1074 209.199 15.7283 209.82 16.4941 209.82Z" fill="#FE2937"/>
<path d="M46.1035 209.82C46.8693 209.82 47.4901 209.199 47.4901 208.434C47.4901 207.668 46.8693 207.047 46.1035 207.047C45.3376 207.047 44.7168 207.668 44.7168 208.434C44.7168 209.199 45.3376 209.82 46.1035 209.82Z" fill="#FE2937"/>
<path d="M31.29 98.2733C32.0558 98.2733 32.6766 97.6525 32.6766 96.8867C32.6766 96.1208 32.0558 95.5 31.29 95.5C30.5242 95.5 29.9033 96.1208 29.9033 96.8867C29.9033 97.6525 30.5242 98.2733 31.29 98.2733Z" fill="#FE2937"/>
<path d="M60.8994 98.2733C61.6652 98.2733 62.286 97.6525 62.286 96.8867C62.286 96.1208 61.6652 95.5 60.8994 95.5C60.1335 95.5 59.5127 96.1208 59.5127 96.8867C59.5127 97.6525 60.1335 98.2733 60.8994 98.2733Z" fill="#FE2937"/>
<path d="M31.29 209.82C32.0558 209.82 32.6766 209.199 32.6766 208.434C32.6766 207.668 32.0558 207.047 31.29 207.047C30.5242 207.047 29.9033 207.668 29.9033 208.434C29.9033 209.199 30.5242 209.82 31.29 209.82Z" fill="#FE2937"/>
<path d="M60.8994 209.82C61.6652 209.82 62.286 209.199 62.286 208.434C62.286 207.668 61.6652 207.047 60.8994 207.047C60.1335 207.047 59.5127 207.668 59.5127 208.434C59.5127 209.199 60.1335 209.82 60.8994 209.82Z" fill="#FE2937"/>
<path d="M2.79851 112.83C2.79851 113.106 2.71683 113.375 2.56378 113.604C2.41072 113.833 2.19318 114.012 1.93866 114.117C1.68414 114.223 1.40407 114.25 1.13387 114.197C0.863674 114.143 0.61549 114.01 0.420689 113.815C0.225888 113.621 0.093197 113.372 0.0394516 113.102C-0.0142939 112.832 0.0133235 112.552 0.118749 112.297C0.224174 112.043 0.402681 111.825 0.631742 111.672C0.860804 111.519 1.13013 111.438 1.40562 111.438C1.77504 111.438 2.12932 111.584 2.39054 111.845C2.65176 112.107 2.79851 112.461 2.79851 112.83Z" fill="#FE2937"/>
<path d="M2.79851 224.381C2.79851 224.657 2.71683 224.926 2.56378 225.155C2.41072 225.384 2.19318 225.563 1.93866 225.668C1.68414 225.773 1.40407 225.801 1.13387 225.747C0.863674 225.694 0.61549 225.561 0.420689 225.366C0.225888 225.171 0.093197 224.923 0.0394516 224.653C-0.0142939 224.383 0.0133235 224.103 0.118749 223.848C0.224174 223.594 0.402681 223.376 0.631742 223.223C0.860804 223.07 1.13013 222.988 1.40562 222.988C1.77504 222.988 2.12932 223.135 2.39054 223.396C2.65176 223.657 2.79851 224.012 2.79851 224.381Z" fill="#FE2937"/>
<path d="M17.9118 112.83C17.9118 113.106 17.8299 113.376 17.6766 113.605C17.5232 113.834 17.3053 114.013 17.0504 114.118C16.7956 114.223 16.5152 114.25 16.2448 114.196C15.9744 114.142 15.7263 114.009 15.5317 113.813C15.3372 113.618 15.205 113.369 15.152 113.098C15.0989 112.828 15.1274 112.547 15.2338 112.293C15.3402 112.039 15.5197 111.822 15.7496 111.669C15.9795 111.517 16.2494 111.436 16.5251 111.438C16.8935 111.439 17.2461 111.587 17.506 111.848C17.7659 112.109 17.9118 112.462 17.9118 112.83Z" fill="#FE2937"/>
<path d="M47.5221 112.83C47.5221 113.106 47.4403 113.376 47.2869 113.605C47.1336 113.834 46.9157 114.013 46.6608 114.118C46.4059 114.223 46.1255 114.25 45.8552 114.196C45.5848 114.142 45.3366 114.009 45.1421 113.813C44.9475 113.618 44.8154 113.369 44.7623 113.098C44.7093 112.828 44.7378 112.547 44.8442 112.293C44.9505 112.039 45.13 111.822 45.3599 111.669C45.5898 111.517 45.8597 111.436 46.1355 111.438C46.5038 111.439 46.8565 111.587 47.1164 111.848C47.3762 112.109 47.5221 112.462 47.5221 112.83Z" fill="#FE2937"/>
<path d="M17.9118 224.381C17.9118 224.657 17.8299 224.926 17.6766 225.156C17.5232 225.385 17.3053 225.563 17.0504 225.669C16.7956 225.774 16.5152 225.801 16.2448 225.747C15.9744 225.693 15.7263 225.559 15.5317 225.364C15.3372 225.168 15.205 224.92 15.152 224.649C15.0989 224.378 15.1274 224.098 15.2338 223.844C15.3402 223.589 15.5197 223.372 15.7496 223.22C15.9795 223.068 16.2494 222.987 16.5251 222.988C16.8935 222.99 17.2461 223.137 17.506 223.398C17.7659 223.66 17.9118 224.013 17.9118 224.381Z" fill="#FE2937"/>
<path d="M47.5221 224.381C47.5221 224.657 47.4403 224.926 47.2869 225.156C47.1336 225.385 46.9157 225.563 46.6608 225.669C46.4059 225.774 46.1255 225.801 45.8552 225.747C45.5848 225.693 45.3366 225.559 45.1421 225.364C44.9475 225.168 44.8154 224.92 44.7623 224.649C44.7093 224.378 44.7378 224.098 44.8442 223.844C44.9505 223.589 45.13 223.372 45.3599 223.22C45.5898 223.068 45.8597 222.987 46.1355 222.988C46.5038 222.99 46.8565 223.137 47.1164 223.398C47.3762 223.66 47.5221 224.013 47.5221 224.381Z" fill="#FE2937"/>
<path d="M32.7077 112.83C32.7077 113.106 32.6258 113.376 32.4725 113.605C32.3191 113.834 32.1012 114.013 31.8463 114.118C31.5915 114.223 31.3111 114.25 31.0407 114.196C30.7703 114.142 30.5222 114.009 30.3276 113.813C30.1331 113.618 30.0009 113.369 29.9479 113.098C29.8948 112.828 29.9233 112.547 30.0297 112.293C30.1361 112.039 30.3156 111.822 30.5455 111.669C30.7754 111.517 31.0453 111.436 31.321 111.438C31.6894 111.439 32.042 111.587 32.3019 111.848C32.5618 112.109 32.7077 112.462 32.7077 112.83Z" fill="#FE2937"/>
<path d="M62.317 112.83C62.317 113.106 62.2352 113.376 62.0819 113.605C61.9285 113.834 61.7106 114.013 61.4557 114.118C61.2008 114.223 60.9204 114.25 60.6501 114.196C60.3797 114.142 60.1316 114.009 59.937 113.813C59.7425 113.618 59.6103 113.369 59.5573 113.098C59.5042 112.828 59.5327 112.547 59.6391 112.293C59.7455 112.039 59.925 111.822 60.1548 111.669C60.3847 111.517 60.6546 111.436 60.9304 111.438C61.2987 111.439 61.6514 111.587 61.9113 111.848C62.1712 112.109 62.317 112.462 62.317 112.83Z" fill="#FE2937"/>
<path d="M32.7077 224.381C32.7077 224.657 32.6258 224.926 32.4725 225.156C32.3191 225.385 32.1012 225.563 31.8463 225.669C31.5915 225.774 31.3111 225.801 31.0407 225.747C30.7703 225.693 30.5222 225.559 30.3276 225.364C30.1331 225.168 30.0009 224.92 29.9479 224.649C29.8948 224.378 29.9233 224.098 30.0297 223.844C30.1361 223.589 30.3156 223.372 30.5455 223.22C30.7754 223.068 31.0453 222.987 31.321 222.988C31.6894 222.99 32.042 223.137 32.3019 223.398C32.5618 223.66 32.7077 224.013 32.7077 224.381Z" fill="#FE2937"/>
<path d="M62.317 224.381C62.317 224.657 62.2352 224.926 62.0819 225.156C61.9285 225.385 61.7106 225.563 61.4557 225.669C61.2008 225.774 60.9204 225.801 60.6501 225.747C60.3797 225.693 60.1316 225.559 59.937 225.364C59.7425 225.168 59.6103 224.92 59.5573 224.649C59.5042 224.378 59.5327 224.098 59.6391 223.844C59.7455 223.589 59.925 223.372 60.1548 223.22C60.3847 223.068 60.6546 222.987 60.9304 222.988C61.2987 222.99 61.6514 223.137 61.9113 223.398C62.1712 223.66 62.317 224.013 62.317 224.381Z" fill="#FE2937"/>
</svg>
