<svg width="35" height="29" viewBox="0 0 35 29" fill="none" xmlns="http://www.w3.org/2000/svg">
<path d="M23.3333 15.582L31.9229 15.582C31.6519 17.387 31.0074 19.1155 30.0306 20.6573C29.0538 22.1991 27.7662 23.5202 26.25 24.5362L23.6396 26.2862L25.2438 28.707L27.8542 26.957C30.0515 25.4928 31.8533 23.5087 33.0999 21.181C34.3464 18.8532 34.9991 16.2538 35 13.6133L35 3.91538C35 3.14183 34.6927 2.39997 34.1457 1.85299C33.5988 1.306 32.8569 0.998712 32.0833 0.998712L23.3333 0.998712C22.5598 0.998711 21.8179 1.306 21.2709 1.85298C20.724 2.39996 20.4167 3.14183 20.4167 3.91538L20.4167 12.6654C20.4167 13.4389 20.724 14.1808 21.2709 14.7278C21.8179 15.2747 22.5598 15.582 23.3333 15.582Z" fill="#E3E3E3"/>
<path d="M2.91635 15.582L11.5059 15.582C11.2349 17.387 10.5904 19.1155 9.61361 20.6573C8.63682 22.1991 7.3492 23.5202 5.83301 24.5362L3.2226 26.2862L4.81218 28.707L7.43718 26.957C9.63448 25.4928 11.4364 23.5087 12.6829 21.181C13.9294 18.8532 14.5821 16.2538 14.583 13.6133L14.583 3.91538C14.583 3.14183 14.2757 2.39997 13.7287 1.85299C13.1818 1.306 12.4399 0.998712 11.6663 0.998712L2.91635 0.998712C2.1428 0.998711 1.40094 1.306 0.853957 1.85298C0.306976 2.39996 -0.000315339 3.14183 -0.000315406 3.91538L-0.000316171 12.6654C-0.000316239 13.4389 0.306975 14.1808 0.853956 14.7278C1.40094 15.2747 2.1428 15.582 2.91635 15.582Z" fill="#E3E3E3"/>
</svg>
