<svg xmlns="http://www.w3.org/2000/svg" width="288.15" height="109.58" viewBox="0 0 288.15 109.58"><path d="M68.69,108.14q2.16,0,2.16-2.37v-15h8.21c1.36,0,2.3-.43,2.66-1.3a6,6,0,0,0,.43-2.52V75.53a2.61,2.61,0,0,0-2.88-2.74H70.85V4.32c0-2.09-.72-3-2.67-3l-13-.08c-1.73,0-2.66.58-3.81,2.38L1.15,83.16A7,7,0,0,0,0,87.05a10.24,10.24,0,0,0,.14,1.29c.29,1.52,1.44,2.45,3.39,2.45H51.19V105.7c0,1.72.36,2.44,2.38,2.44ZM29.23,72.65,51.48,37.08V72.65Z"/><path d="M146.68,109.58a56,56,0,0,0,47.88-27.14,53,53,0,0,0,7.7-27.58,53.92,53.92,0,0,0-7.7-27.72,56.91,56.91,0,0,0-20-19.65A55.81,55.81,0,0,0,146.68,0,54.44,54.44,0,0,0,119,7.49,54.93,54.93,0,0,0,92,54.86a54.68,54.68,0,0,0,54.72,54.72Zm.07-20a33.75,33.75,0,0,1-24.19-10.15,35.47,35.47,0,0,1,0-49.25,33.85,33.85,0,0,1,24.19-10.3,35.57,35.57,0,0,1,24.7,10.3,34.9,34.9,0,0,1,10.29,24.62,34.16,34.16,0,0,1-10.29,24.63A35.78,35.78,0,0,1,146.75,89.57Z" fill="#ebf7fa"/><path d="M274.69,108.14q2.16,0,2.16-2.37v-15h8.21c1.36,0,2.3-.43,2.66-1.3a6,6,0,0,0,.43-2.52V75.53a2.61,2.61,0,0,0-2.88-2.74h-8.42V4.32c0-2.09-.72-3-2.67-3l-13-.08c-1.73,0-2.66.58-3.81,2.38L207.15,83.16A7,7,0,0,0,206,87.05a10.24,10.24,0,0,0,.14,1.29c.29,1.52,1.44,2.45,3.39,2.45h47.66V105.7c0,1.72.36,2.44,2.38,2.44ZM235.23,72.65l22.25-35.57V72.65Z"/><path d="M195.74,104.42a5.48,5.48,0,0,1-7.64,0l-9.54-9.55a5.4,5.4,0,0,1,7.63-7.63l9.55,9.54A5.33,5.33,0,0,1,195.74,104.42Z" fill="#c7d7e2"/><path d="M147.2,19.7A35.93,35.93,0,1,0,183,55.63,35.88,35.88,0,0,0,147.2,19.7Zm0,62.9a27,27,0,1,1,26.88-27A26.9,26.9,0,0,1,147.2,82.6Z" fill="#fff"/><path d="M147.2,82.6a27,27,0,1,1,26.88-27A26.89,26.89,0,0,1,147.2,82.6Z" fill="#ebf7fa"/><path d="M147.2,94.13a38.46,38.46,0,1,1,38.33-38.5A38.42,38.42,0,0,1,147.2,94.13Zm0-71.94a33.44,33.44,0,1,0,33.35,33.44A33.43,33.43,0,0,0,147.2,22.19Z" fill="#fe2937"/><path d="M178.64,89.74A2.39,2.39,0,0,1,176.9,89l-6.14-6.14a2.46,2.46,0,0,1,3.49-3.48l6.14,6.14a2.41,2.41,0,0,1,0,3.48A2.55,2.55,0,0,1,178.64,89.74Z" fill="#fe2937"/><path d="M192,108.48a7.89,7.89,0,0,1-5.56-2.32l-9.54-9.54A7.86,7.86,0,1,1,188,85.5L197.56,95A7.88,7.88,0,0,1,192,108.48Zm-9.54-20.33a3.24,3.24,0,0,0-2.07.83,2.89,2.89,0,0,0,0,4.15l9.54,9.54a3,3,0,0,0,4.06,0,2.89,2.89,0,0,0,0-4.15L184.45,89A2.57,2.57,0,0,0,182.46,88.15Z" fill="#fe2937"/><path d="M129.44,51.82a3.07,3.07,0,0,1-.83-.17,2.42,2.42,0,0,1-1.49-3.15A21.38,21.38,0,0,1,147.2,34.31a2.49,2.49,0,1,1,0,5,16.29,16.29,0,0,0-15.35,10.87A2.71,2.71,0,0,1,129.44,51.82Z" fill="#fff"/><path d="M128.36,58.12a2.45,2.45,0,0,1-2.49-2.49v-.41a2.49,2.49,0,1,1,5,.16v.33A2.48,2.48,0,0,1,128.36,58.12Z" fill="#fff"/></svg>