<svg width="40" height="40" viewBox="0 0 40 40" fill="none" xmlns="http://www.w3.org/2000/svg">
<path d="M36.5527 20.7571H32.1823V4.67224C32.1823 2.09595 30.0848 0 27.5067 0H12.4936C9.91547 0 7.81799 2.09595 7.81799 4.67224V20.7571H3.13446C1.46484 20.7571 0 22.3669 0 24.202V38.8281C0 39.4754 0.524902 40 1.17279 40H8.99048H8.99078H38.8272C39.4751 40 40 39.4754 40 38.8281V24.202C40 22.3026 38.4534 20.7571 36.5527 20.7571V20.7571ZM2.34528 24.202C2.34528 23.5281 2.90039 23.1009 3.13446 23.1009H7.81799V37.6562H2.34528V24.202ZM10.1633 4.67224C10.1633 3.38837 11.2088 2.34375 12.4936 2.34375H27.5067C28.7915 2.34375 29.8367 3.38837 29.8367 4.67224V37.6562H24.675V29.7876C24.675 29.1406 24.1501 28.6157 23.5022 28.6157H16.4981C15.8502 28.6157 15.3253 29.1406 15.3253 29.7876V37.6562H10.1636V4.67224H10.1633ZM22.3297 37.6562H17.6706V30.9595H22.3297V37.6562ZM37.6547 37.6562H32.1823V23.1009H36.5527C37.1603 23.1009 37.6547 23.595 37.6547 24.202V37.6562Z" fill="#FE2937"/>
<path d="M18.1259 8.79352H18.7627V9.43044C18.7627 10.1137 19.3165 10.6675 19.9996 10.6675C20.6828 10.6675 21.2369 10.1137 21.2369 9.43044V8.79352H21.8737C22.5568 8.79352 23.1109 8.23973 23.1109 7.55642C23.1109 6.87344 22.5568 6.31932 21.8737 6.31932H21.2369V5.68241C21.2369 4.99943 20.6828 4.44531 19.9996 4.44531C19.3165 4.44531 18.7627 4.99943 18.7627 5.68241V6.31932H18.1259C17.4424 6.31932 16.8887 6.87344 16.8887 7.55642C16.8887 8.23973 17.4424 8.79352 18.1259 8.79352Z" fill="#FE2937"/>
<path d="M22.2227 15.1115C22.2227 15.6025 22.6854 16.0004 23.2565 16.0004H25.6333C26.2044 16.0004 26.6671 15.6025 26.6671 15.1115C26.6671 14.6208 26.2044 14.2227 25.6333 14.2227H23.2565C22.6856 14.2227 22.2227 14.6208 22.2227 15.1115V15.1115Z" fill="#FE2937"/>
<path d="M15.2553 16.0004H17.6325C18.2034 16.0004 18.6661 15.6025 18.6661 15.1115C18.6661 14.6208 18.2034 14.2227 17.6325 14.2227H15.2553C14.6844 14.2227 14.2217 14.6208 14.2217 15.1115C14.2217 15.6025 14.6844 16.0004 15.2553 16.0004Z" fill="#FE2937"/>
<path d="M25.6333 24H23.2565C22.6854 24 22.2227 24.3981 22.2227 24.8889C22.2227 25.3799 22.6854 25.7778 23.2565 25.7778H25.6333C26.2044 25.7778 26.6671 25.3799 26.6671 24.8889C26.6671 24.3981 26.2044 24 25.6333 24V24Z" fill="#FE2937"/>
<path d="M17.6323 25.7778C18.2031 25.7778 18.6661 25.3799 18.6661 24.8889C18.6661 24.3981 18.2031 24 17.6323 24H15.2555C14.6844 24 14.2217 24.3981 14.2217 24.8889C14.2217 25.3799 14.6844 25.7778 15.2555 25.7778H17.6323Z" fill="#FE2937"/>
<path d="M25.6333 18.666H23.2565C22.6854 18.666 22.2227 19.2632 22.2227 19.9993C22.2227 20.7358 22.6854 21.3327 23.2565 21.3327H25.6333C26.2044 21.3327 26.6671 20.7358 26.6671 19.9993C26.6671 19.2632 26.2044 18.666 25.6333 18.666V18.666Z" fill="#FE2937"/>
<path d="M15.2553 21.3327H17.6325C18.2034 21.3327 18.6661 20.7358 18.6661 19.9993C18.6661 19.2632 18.2034 18.666 17.6325 18.666H15.2553C14.6844 18.666 14.2217 19.2632 14.2217 19.9993C14.2217 20.7358 14.6844 21.3327 15.2553 21.3327Z" fill="#FE2937"/>
</svg>
