<svg width="30" height="38" viewBox="0 0 30 38" fill="none" xmlns="http://www.w3.org/2000/svg">
<path d="M27.5581 35.9273H18.0028C19.7026 34.4851 21.2946 32.9228 22.7663 31.2528C27.4988 25.8635 30 20.193 30 14.8545C30 10.9149 28.4196 7.13656 25.6066 4.3508C22.7936 1.56503 18.9782 0 15 0C11.0218 0 7.20644 1.56503 4.3934 4.3508C1.58035 7.13656 0 10.9149 0 14.8545C0 20.193 2.50116 25.8635 7.23349 31.2528C8.70522 32.9228 10.2972 34.4851 11.997 35.9273H2.44186C2.16431 35.9273 1.89812 36.0365 1.70186 36.2308C1.50561 36.4252 1.39535 36.6888 1.39535 36.9636C1.39535 37.2385 1.50561 37.5021 1.70186 37.6965C1.89812 37.8908 2.16431 38 2.44186 38H27.5581C27.8357 38 28.1019 37.8908 28.2981 37.6965C28.4944 37.5021 28.6047 37.2385 28.6047 36.9636C28.6047 36.6888 28.4944 36.4252 28.2981 36.2308C28.1019 36.0365 27.8357 35.9273 27.5581 35.9273ZM2.09302 14.8545C2.09302 11.4646 3.45286 8.21349 5.87339 5.81644C8.29392 3.41938 11.5769 2.07273 15 2.07273C18.4231 2.07273 21.7061 3.41938 24.1266 5.81644C26.5471 8.21349 27.907 11.4646 27.907 14.8545C27.907 25.1532 17.6198 33.6692 15 35.6703C12.3797 33.669 2.09302 25.1532 2.09302 14.8545ZM21.6279 14.8545C21.6279 13.5564 21.2392 12.2874 20.5109 11.208C19.7826 10.1286 18.7475 9.28732 17.5364 8.79054C16.3253 8.29375 14.9926 8.16377 13.707 8.41703C12.4213 8.67029 11.2403 9.29541 10.3134 10.2134C9.38643 11.1313 8.75519 12.3008 8.49945 13.574C8.24371 14.8473 8.37496 16.167 8.87661 17.3663C9.37826 18.5657 10.2278 19.5908 11.3177 20.312C12.4077 21.0332 13.6891 21.4182 15 21.4182C16.7572 21.4162 18.4419 20.7241 19.6844 19.4936C20.927 18.2631 21.6259 16.5947 21.6279 14.8545ZM10.4651 14.8545C10.4651 13.9663 10.7311 13.0981 11.2294 12.3595C11.7277 11.621 12.4359 11.0454 13.2646 10.7055C14.0932 10.3656 15.005 10.2766 15.8847 10.4499C16.7644 10.6232 17.5724 11.0509 18.2066 11.679C18.8409 12.3071 19.2728 13.1073 19.4477 13.9784C19.6227 14.8496 19.5329 15.7525 19.1897 16.5731C18.8465 17.3937 18.2652 18.0951 17.5194 18.5886C16.7737 19.0821 15.8969 19.3455 15 19.3455C13.7977 19.3441 12.645 18.8705 11.7949 18.0286C10.9447 17.1867 10.4665 16.0452 10.4651 14.8545Z" fill="#FE2937"/>
</svg>
