<svg width="37" height="37" viewBox="0 0 37 37" fill="none" xmlns="http://www.w3.org/2000/svg">
<path d="M18.44 36.88C14.7929 36.88 11.2277 35.7985 8.19529 33.7723C5.16285 31.7461 2.79935 28.8662 1.40367 25.4967C0.00798976 22.1272 -0.357184 18.4196 0.354328 14.8425C1.06584 11.2655 2.82208 7.97984 5.40096 5.40096C7.97984 2.82208 11.2655 1.06584 14.8425 0.354328C18.4196 -0.357184 22.1272 0.00798976 25.4967 1.40367C28.8662 2.79935 31.7461 5.16285 33.7723 8.19529C35.7985 11.2277 36.88 14.7929 36.88 18.44C36.8745 23.3289 34.9299 28.016 31.4729 31.4729C28.016 34.9299 23.3289 36.8745 18.44 36.88ZM18.44 2.50001C15.2874 2.50001 12.2055 3.43487 9.58422 5.18638C6.9629 6.93789 4.91983 9.42738 3.71337 12.34C2.50691 15.2527 2.19124 18.4577 2.80629 21.5497C3.42134 24.6418 4.93948 27.482 7.16873 29.7113C9.39797 31.9405 12.2382 33.4587 15.3303 34.0737C18.4223 34.6888 21.6273 34.3731 24.54 33.1666C27.4526 31.9602 29.9421 29.9171 31.6936 27.2958C33.4451 24.6745 34.38 21.5926 34.38 18.44C34.3752 14.2139 32.6943 10.1623 29.706 7.17399C26.7177 4.18569 22.6661 2.50477 18.44 2.50001Z" fill="#FE2937"/>
<path d="M18.4405 27.5607C19.4777 27.5607 20.3185 26.7199 20.3185 25.6827C20.3185 24.6455 19.4777 23.8047 18.4405 23.8047C17.4033 23.8047 16.5625 24.6455 16.5625 25.6827C16.5625 26.7199 17.4033 27.5607 18.4405 27.5607Z" fill="#FE2937"/>
<path d="M18.4096 21.0107C18.1007 21.0111 17.8035 20.8922 17.58 20.6789C17.3565 20.4656 17.2238 20.1744 17.2096 19.8657L16.7846 10.9827C16.7753 10.7597 16.8113 10.5371 16.8904 10.3284C16.9695 10.1197 17.09 9.92912 17.2448 9.76827C17.3996 9.60743 17.5853 9.47962 17.7909 9.39256C17.9964 9.3055 18.2174 9.26099 18.4406 9.26173C18.6642 9.26174 18.8855 9.30714 19.091 9.39518C19.2965 9.48322 19.4821 9.61206 19.6363 9.7739C19.7906 9.93574 19.9104 10.1272 19.9885 10.3367C20.0666 10.5462 20.1013 10.7694 20.0906 10.9927L19.6036 19.8737C19.5876 20.1799 19.4549 20.4683 19.2328 20.6798C19.0108 20.8912 18.7162 21.0096 18.4096 21.0107Z" fill="#FE2937"/>
</svg>
