<svg width="40" height="31" viewBox="0 0 40 31" fill="none" xmlns="http://www.w3.org/2000/svg">
<path d="M25.4508 0L19.997 5.37815H5.45374C4.00731 5.37815 2.62014 5.94478 1.59736 6.95338C0.574588 7.96197 0 9.32993 0 10.7563L0 16.1345C0 17.5608 0.574588 18.9288 1.59736 19.9374C2.62014 20.946 4.00731 21.5126 5.45374 21.5126V26.8908C5.45374 27.8417 5.83679 28.7536 6.51864 29.426C7.20049 30.0984 8.12528 30.4762 9.08956 30.4762H10.9075C11.8718 30.4762 12.7965 30.0984 13.4784 29.426C14.1602 28.7536 14.5433 27.8417 14.5433 26.8908V21.5126H19.997L25.4508 26.8908H29.0866V0H25.4508ZM26.2034 1.79272H27.2687V25.098H26.2034L20.7496 19.7199H5.45374C4.48946 19.7199 3.56467 19.3421 2.88282 18.6697C2.20097 17.9973 1.81791 17.0854 1.81791 16.1345V10.7563C1.81791 9.80539 2.20097 8.89342 2.88282 8.22102C3.56467 7.54862 4.48946 7.17087 5.45374 7.17087H20.7496L26.2034 1.79272ZM32.7224 5.37815V7.18521C34.2369 7.40106 35.6219 8.14779 36.6235 9.2886C37.6252 10.4294 38.1766 11.8879 38.1766 13.397C38.1766 14.906 37.6252 16.3645 36.6235 17.5053C35.6219 18.6462 34.2369 19.3929 32.7224 19.6087V21.414C34.7234 21.1948 36.5721 20.2558 37.9149 18.7764C39.2576 17.2971 40 15.3814 40 13.3961C40 11.4107 39.2576 9.49506 37.9149 8.01573C36.5721 6.53641 34.7234 5.59731 32.7224 5.37815V5.37815ZM32.7224 10.8621V15.9319C33.2538 15.7464 33.7138 15.403 34.0392 14.949C34.3645 14.4951 34.5392 13.9529 34.5392 13.397C34.5392 12.8411 34.3645 12.2989 34.0392 11.8449C33.7138 11.391 33.2538 11.0476 32.7224 10.8621ZM7.27165 21.5126H12.7254V26.8908C12.7254 27.3662 12.5339 27.8222 12.1929 28.1584C11.852 28.4946 11.3896 28.6835 10.9075 28.6835H9.08956C8.60742 28.6835 8.14503 28.4946 7.8041 28.1584C7.46318 27.8222 7.27165 27.3662 7.27165 26.8908V21.5126Z" fill="#FE2937"/>
</svg>
