<svg width="32" height="40" viewBox="0 0 32 40" fill="none" xmlns="http://www.w3.org/2000/svg">
<path d="M30.8204 5.97961H23.459V5.1355C23.459 4.48822 22.931 3.96362 22.2794 3.96362H21.4666C21.3247 1.75232 19.6227 0 17.5505 0H14.4492C12.3773 0 10.675 1.75232 10.5334 3.96362H9.72026C9.06874 3.96362 8.54071 4.48822 8.54071 5.1355V5.97961H1.17955C0.528035 5.97961 0 6.50452 0 7.15149V38.8281C0 39.4754 0.528035 40 1.17955 40H30.8204C31.4717 40 32 39.4754 32 38.8281V7.15149C32 6.50421 31.4717 5.97961 30.8204 5.97961ZM24.7494 13.3127V32.9227H7.25057V13.3127H24.7494ZM10.8998 6.30737H11.7034C12.3549 6.30737 12.8829 5.78278 12.8829 5.1355V4.26239C12.8829 3.20435 13.5858 2.34375 14.4492 2.34375H17.5505C18.4142 2.34375 19.1171 3.20435 19.1171 4.26239V5.1355C19.1171 5.78278 19.6451 6.30737 20.2966 6.30737H21.0999V10.9689H10.8998V6.30737ZM29.6409 37.6562H2.35911V8.32336H8.54071V10.9689H6.07102C5.4195 10.9689 4.89146 11.4935 4.89146 12.1408V34.0945C4.89146 34.7418 5.4195 35.2664 6.07102 35.2664H25.9287C26.5802 35.2664 27.1082 34.7418 27.1082 34.0945V12.1408C27.1082 11.4935 26.5802 10.9689 25.9287 10.9689H23.459V8.32336H29.6406L29.6409 37.6562Z" fill="#FE2937"/>
<path d="M10.8132 29.3333H11.4091C11.9807 29.3333 12.4444 28.9354 12.4444 28.4444C12.4444 27.9535 11.9807 27.5556 11.4091 27.5556H10.8132C10.2415 27.5556 9.77778 27.9535 9.77778 28.4444C9.77778 28.9354 10.2413 29.3333 10.8132 29.3333Z" fill="#FE2937"/>
<path d="M15.4488 29.3333H20.9956C21.6731 29.3333 22.2222 28.9354 22.2222 28.4444C22.2222 27.9535 21.6731 27.5556 20.9956 27.5556H15.4488C14.7716 27.5556 14.2222 27.9535 14.2222 28.4444C14.2222 28.9354 14.7716 29.3333 15.4488 29.3333Z" fill="#FE2937"/>
<path d="M10.8132 24H11.4091C11.9807 24 12.4444 23.4031 12.4444 22.6667C12.4444 21.9302 11.9807 21.3333 11.4091 21.3333H10.8132C10.2415 21.3333 9.77778 21.9302 9.77778 22.6667C9.77778 23.4031 10.2413 24 10.8132 24Z" fill="#FE2937"/>
<path d="M15.4488 24H20.9956C21.6731 24 22.2222 23.4031 22.2222 22.6667C22.2222 21.9302 21.6731 21.3333 20.9956 21.3333H15.4488C14.7716 21.3333 14.2222 21.9302 14.2222 22.6667C14.2222 23.4031 14.7716 24 15.4488 24Z" fill="#FE2937"/>
<path d="M10.8132 18.6667H11.4091C11.9807 18.6667 12.4444 18.0698 12.4444 17.3333C12.4444 16.5969 11.9807 16 11.4091 16H10.8132C10.2415 16 9.77778 16.5969 9.77778 17.3333C9.77778 18.0698 10.2413 18.6667 10.8132 18.6667Z" fill="#FE2937"/>
<path d="M15.4488 18.6667H20.9956C21.6731 18.6667 22.2222 18.0698 22.2222 17.3333C22.2222 16.5969 21.6731 16 20.9956 16H15.4488C14.7716 16 14.2222 16.5969 14.2222 17.3333C14.2222 18.0698 14.7716 18.6667 15.4488 18.6667Z" fill="#FE2937"/>
<path d="M15.9783 5.33333H16.0217C16.9912 5.33333 17.7778 4.73646 17.7778 4C17.7778 3.26389 16.9912 2.66667 16.0217 2.66667H15.9783C15.0083 2.66667 14.2222 3.26389 14.2222 4C14.2222 4.73646 15.0083 5.33333 15.9783 5.33333Z" fill="#FE2937"/>
</svg>
