<svg width="39" height="39" viewBox="0 0 39 39" fill="none" xmlns="http://www.w3.org/2000/svg">
<path fill-rule="evenodd" clip-rule="evenodd" d="M25.8704 29.3137C23.1207 31.349 31.6709 22.6055 29.2379 25.9292C29.2988 25.9243 29.1859 26.1086 28.8076 26.5705C28.8076 26.5705 35.3055 33.0246 38.4952 36.3093C39.6026 37.5068 37.6047 39.8968 36.2473 38.649C33.3587 35.8465 26.5239 28.8818 26.5133 28.8704L25.8704 29.3137Z" fill="#FE2937"/>
<path d="M16.3324 32.5027C20.5134 32.4621 24.6521 30.7304 27.6283 27.7892C31.1631 24.2958 32.9832 19.1277 32.3483 14.1933C31.2605 5.73806 24.3095 0 16.2285 0C10.0886 0 4.12159 3.8408 1.50423 9.41C-0.49938 13.6738 -0.50344 18.8216 1.50423 23.0927C4.10292 28.6229 9.9725 32.4434 16.1238 32.5027C16.1936 32.5027 16.2634 32.5027 16.3324 32.5027ZM16.1408 29.7936C9.897 29.7335 4.07126 24.9047 2.91277 18.7136C2.09606 14.3492 3.63774 9.62595 6.84936 6.52635C10.5984 2.90638 16.4915 1.6943 21.3918 3.74581C25.7757 5.58138 29.0572 9.84352 29.662 14.5392C30.1799 18.5643 28.7357 22.7826 25.8975 25.6881C23.4076 28.2373 19.9159 29.7587 16.3154 29.7936C16.2569 29.7936 16.1993 29.7936 16.1408 29.7936Z" fill="#FE2937"/>
</svg>
