<svg width="38" height="38" viewBox="0 0 38 38" fill="none" xmlns="http://www.w3.org/2000/svg">
<path d="M5.27778 25.3333C5.27778 25.0534 5.38899 24.7849 5.58694 24.5869C5.7849 24.389 6.05338 24.2778 6.33333 24.2778H21.1111C21.3911 24.2778 21.6595 24.389 21.8575 24.5869C22.0555 24.7849 22.1667 25.0534 22.1667 25.3333C22.1667 25.6133 22.0555 25.8818 21.8575 26.0797C21.6595 26.2777 21.3911 26.3889 21.1111 26.3889H6.33333C6.05338 26.3889 5.7849 26.2777 5.58694 26.0797C5.38899 25.8818 5.27778 25.6133 5.27778 25.3333Z" fill="#FE2937"/>
<path d="M6.33333 29.5555C6.05338 29.5555 5.7849 29.6668 5.58694 29.8647C5.38899 30.0627 5.27778 30.3311 5.27778 30.6111C5.27778 30.891 5.38899 31.1595 5.58694 31.3575C5.7849 31.5554 6.05338 31.6667 6.33333 31.6667H21.1111C21.3911 31.6667 21.6595 31.5554 21.8575 31.3575C22.0555 31.1595 22.1667 30.891 22.1667 30.6111C22.1667 30.3311 22.0555 30.0627 21.8575 29.8647C21.6595 29.6668 21.3911 29.5555 21.1111 29.5555H6.33333Z" fill="#FE2937"/>
<path d="M8.44445 15.8333V12.6667H10.5556V15.8333H13.7222V17.9444H10.5556V21.1111H8.44445V17.9444H5.27778V15.8333H8.44445Z" fill="#FE2937"/>
<path fill-rule="evenodd" clip-rule="evenodd" d="M9.5 0C8.66015 0 7.85469 0.33363 7.26083 0.927495C6.66696 1.52136 6.33333 2.32681 6.33333 3.16667H3.16667C2.32681 3.16667 1.52136 3.5003 0.927495 4.09416C0.33363 4.68803 0 5.49348 0 6.33333V34.8333C0 35.6732 0.33363 36.4786 0.927495 37.0725C1.52136 37.6664 2.32681 38 3.16667 38H24.2778C25.1176 38 25.9231 37.6664 26.517 37.0725C27.1108 36.4786 27.4444 35.6732 27.4444 34.8333V6.33333C27.4444 5.49348 27.1108 4.68803 26.517 4.09416C25.9231 3.5003 25.1176 3.16667 24.2778 3.16667H21.1111C21.1111 2.32681 20.7775 1.52136 20.1836 0.927495C19.5898 0.33363 18.7843 0 17.9444 0H9.5ZM17.9444 6.33333C18.2244 6.33333 18.4929 6.22212 18.6908 6.02417C18.8888 5.82621 19 5.55773 19 5.27778V3.16667C19 2.88672 18.8888 2.61823 18.6908 2.42028C18.4929 2.22232 18.2244 2.11111 17.9444 2.11111H9.5C9.22005 2.11111 8.95156 2.22232 8.75361 2.42028C8.55565 2.61823 8.44444 2.88672 8.44444 3.16667V5.27778C8.44444 5.55773 8.55565 5.82621 8.75361 6.02417C8.95156 6.22212 9.22005 6.33333 9.5 6.33333H17.9444ZM6.33333 5.27778C6.33333 6.11763 6.66696 6.92308 7.26083 7.51695C7.85469 8.11082 8.66015 8.44444 9.5 8.44444H17.9444C18.7843 8.44444 19.5898 8.11082 20.1836 7.51695C20.7775 6.92308 21.1111 6.11763 21.1111 5.27778H24.2778C24.5577 5.27778 24.8262 5.38899 25.0242 5.58694C25.2221 5.7849 25.3333 6.05338 25.3333 6.33333V34.8333C25.3333 35.1133 25.2221 35.3818 25.0242 35.5797C24.8262 35.7777 24.5577 35.8889 24.2778 35.8889H3.16667C2.88672 35.8889 2.61823 35.7777 2.42028 35.5797C2.22232 35.3818 2.11111 35.1133 2.11111 34.8333V6.33333C2.11111 6.05338 2.22232 5.7849 2.42028 5.58694C2.61823 5.38899 2.88672 5.27778 3.16667 5.27778H6.33333Z" fill="#FE2937"/>
<path fill-rule="evenodd" clip-rule="evenodd" d="M31.6667 11.6111C31.6667 10.7713 32.0003 9.96582 32.5942 9.37195C33.188 8.77809 33.9935 8.44446 34.8333 8.44446C35.6732 8.44446 36.4786 8.77809 37.0725 9.37195C37.6664 9.96582 38 10.7713 38 11.6111V33.0421L34.8333 37.7921L31.6667 33.0421V11.6111ZM34.8333 10.5556C34.5534 10.5556 34.2849 10.6668 34.0869 10.8647C33.889 11.0627 33.7778 11.3312 33.7778 11.6111V13.7222H35.8889V11.6111C35.8889 11.3312 35.7777 11.0627 35.5797 10.8647C35.3818 10.6668 35.1133 10.5556 34.8333 10.5556ZM34.8333 33.9857L35.8889 32.4024V15.8333H33.7778V32.4024L34.8333 33.9857Z" fill="#FE2937"/>
</svg>
