<svg width="32" height="40" viewBox="0 0 32 40" fill="none" xmlns="http://www.w3.org/2000/svg">
<path d="M32 23.2684C32 20.4663 29.7417 18.1866 26.9656 18.1866C24.1899 18.1866 21.9313 20.4663 21.9313 23.2684C21.9313 25.679 23.6033 27.7014 25.8376 28.2202V30.5872C25.8376 34.4852 22.7082 37.6562 18.8616 37.6562C17.1113 37.6562 15.3891 36.7334 14.0115 35.058C12.8798 33.681 12.1361 31.94 11.9384 30.2588C12.5353 29.9902 13.0415 29.5364 13.3838 28.9365L13.4767 28.7735C13.4801 28.7677 13.4834 28.7619 13.4868 28.7558L15.181 25.6653C18.8689 24.2337 21.4361 21.0861 21.4361 17.4414V3.74023C21.4361 2.5943 20.4182 1.66199 19.1674 1.66199H15.87V1.17188C15.87 0.524597 15.3461 0 14.7004 0C14.0545 0 13.5309 0.524597 13.5309 1.17188V4.49554C13.5309 5.14282 14.0545 5.66742 14.7004 5.66742C15.3461 5.66742 15.87 5.14282 15.87 4.49554V4.00574H19.0971V17.4414C19.0971 19.1794 18.2522 20.8331 16.7185 22.0981C15.9379 22.7417 15.0306 23.2431 14.0429 23.5892C14.0045 23.6005 13.9668 23.6136 13.9293 23.6285C12.924 23.9667 11.8379 24.1443 10.718 24.1443C9.48914 24.1443 8.30167 23.9294 7.21652 23.5248C7.19794 23.5172 7.17906 23.5107 7.16018 23.504C6.26264 23.1628 5.43638 22.6907 4.71762 22.0981C3.18386 20.8331 2.33901 19.1794 2.33901 17.4414V4.00574H5.56612V4.49554C5.56612 5.14282 6.08996 5.66742 6.73562 5.66742C7.38159 5.66742 7.90513 5.14282 7.90513 4.49554V1.17188C7.90513 0.524597 7.38159 0 6.73562 0C6.08996 0 5.56612 0.524597 5.56612 1.17188V1.66199H2.26866C1.01784 1.66199 0 2.5943 0 3.74023V17.4414C0 20.9912 2.43525 24.0695 5.96905 25.5499L7.8966 28.9365C8.28674 29.6201 8.88886 30.1151 9.59574 30.361C9.81197 32.551 10.7363 34.7604 12.2061 36.5482C14.0362 38.7741 16.3996 40 18.8613 40C23.9977 40 28.1766 35.7776 28.1766 30.5875V28.201C30.3694 27.6523 32 25.6494 32 23.2684ZM10.718 26.488C11.1871 26.488 11.6494 26.4624 12.1029 26.4127L11.4417 27.6187L11.3533 27.7728C11.1374 28.1515 10.7829 28.1924 10.6404 28.1924C10.4978 28.1924 10.1433 28.1515 9.9274 27.7731L9.13981 26.3898C9.65513 26.4542 10.182 26.488 10.718 26.488ZM26.9656 26.0068C25.4797 26.0068 24.2703 24.7784 24.2703 23.2684C24.2703 21.7587 25.4797 20.5304 26.9656 20.5304C28.4519 20.5304 29.661 21.7587 29.661 23.2684C29.661 24.7784 28.4519 26.0068 26.9656 26.0068Z" fill="#FE2937"/>
</svg>
