<svg width="35" height="28" viewBox="0 0 35 28" fill="none" xmlns="http://www.w3.org/2000/svg">
<path d="M11.6667 13.125H3.07708C3.34811 11.3201 3.99261 9.59152 4.9694 8.04975C5.94619 6.50798 7.2338 5.18688 8.75 4.17083L11.3604 2.42083L9.75624 0L7.14583 1.75C4.94853 3.21428 3.14666 5.19831 1.90011 7.52605C0.653561 9.85379 0.000885334 12.4532 0 15.0937V24.7917C0 25.5652 0.30729 26.3071 0.854271 26.854C1.40125 27.401 2.14312 27.7083 2.91667 27.7083H11.6667C12.4402 27.7083 13.1821 27.401 13.7291 26.854C14.276 26.3071 14.5833 25.5652 14.5833 24.7917V16.0417C14.5833 15.2681 14.276 14.5262 13.7291 13.9793C13.1821 13.4323 12.4402 13.125 11.6667 13.125Z" fill="#2E2E36"/>
<path d="M32.0837 13.125H23.4941C23.7651 11.3201 24.4096 9.59152 25.3864 8.04975C26.3632 6.50798 27.6508 5.18688 29.167 4.17083L31.7774 2.42083L30.1878 0L27.5628 1.75C25.3655 3.21428 23.5636 5.19831 22.3171 7.52605C21.0706 9.85379 20.4179 12.4532 20.417 15.0937V24.7917C20.417 25.5652 20.7243 26.3071 21.2713 26.854C21.8182 27.401 22.5601 27.7083 23.3337 27.7083H32.0837C32.8572 27.7083 33.5991 27.401 34.146 26.854C34.693 26.3071 35.0003 25.5652 35.0003 24.7917V16.0417C35.0003 15.2681 34.693 14.5262 34.146 13.9793C33.5991 13.4323 32.8572 13.125 32.0837 13.125Z" fill="#2E2E36"/>
</svg>
