<svg width="105" height="74" viewBox="0 0 105 74" fill="none" xmlns="http://www.w3.org/2000/svg">
<path d="M52.8884 73.6247C41.7009 73.6877 30.5133 73.5408 19.3468 72.9321C15.7156 72.7222 12.0844 72.4073 8.78898 70.6232C6.58506 69.4268 4.88489 67.7686 3.81441 65.4177C2.0093 61.5136 1.44258 57.3997 1.10674 53.2017C0.393089 44.533 0.35111 35.8642 0.728925 27.2164C0.917832 22.6197 1.06476 17.981 2.15623 13.4682C2.57602 11.705 3.18472 9.98388 4.00332 8.34668C5.93438 4.50556 9.29273 2.5955 13.3437 1.79789C16.7441 1.12621 20.2284 1.14721 23.6917 1.00028C35.4249 0.517514 47.1792 0.265637 58.9334 0.391575C67.98 0.496524 77.0476 0.72741 86.0941 1.18918C88.8858 1.33611 91.6984 1.37809 94.3641 2.36461C97.9743 3.70795 100.661 5.97484 102.109 9.64804C103.516 13.1743 104.061 16.8265 104.355 20.5837C105.174 30.7847 105.195 40.9857 104.523 51.1867C104.292 54.629 104.061 58.0713 103.159 61.4507C101.123 69.2169 96.2741 72.2604 89.1586 72.7431C81.5603 73.2469 73.9411 73.5198 66.3218 73.6247C61.851 73.6667 57.3592 73.6247 52.8884 73.6247ZM41.8688 52.1522C52.0278 46.59 62.0609 41.0906 72.2619 35.5074C62.0399 29.9031 52.0068 24.4248 41.8688 18.8625C41.8688 30.05 41.8688 41.0277 41.8688 52.1522Z" fill="#FE2937"/>
<path d="M41.8691 52.1515C41.8691 41.027 41.8691 30.0493 41.8691 18.8828C52.0072 24.4241 62.0403 29.9234 72.2623 35.5277C62.0613 41.1109 52.0282 46.5892 41.8691 52.1515Z" fill="#FEFDFD"/>
</svg>
