<svg width="143" height="58" viewBox="0 0 143 58" fill="none" xmlns="http://www.w3.org/2000/svg">
<path fill-rule="evenodd" clip-rule="evenodd" d="M112.417 10.1046H102.437C102.289 10.1046 102.244 10.1494 102.244 10.2977V20.2092C102.244 20.3575 102.289 20.4023 102.437 20.4023H122.654V40.7402H132.698C132.847 40.7402 132.892 40.6954 132.892 40.5472V30.5713H143V20.3379H122.847C122.699 20.3379 122.654 20.2931 122.654 20.1449V0H112.417V10.1046Z" fill="#fff"/>
<path fill-rule="evenodd" clip-rule="evenodd" d="M45.585 49.1724H50.6714L52.7396 42.358C52.8112 42.1098 52.8783 41.8849 52.9658 41.6187L54.4702 37.0082L57.6818 47.6353C57.8391 48.1288 58.0258 48.6817 58.1401 49.1724H63.2266C63.3395 48.688 63.5519 48.1553 63.7005 47.6509C64.4473 45.1161 65.3173 42.464 66.0224 39.996C66.1715 39.4742 66.3129 38.9777 66.4854 38.4636L66.8521 37.2856C66.9404 36.9838 66.8209 37.0935 67.0253 36.9439C67.0308 37.1909 67.352 38.142 67.4525 38.4477L68.8418 43.0445C69.1877 44.2917 70.4267 48.0198 70.6953 49.1724H75.7817C75.7593 48.9021 72.7575 40.0683 72.6838 39.8476L69.9476 31.7058C69.8019 31.2895 69.6367 30.9386 69.5363 30.5078H64.3855C64.286 30.9349 64.079 31.4596 63.943 31.8676C63.4605 33.3151 62.0105 37.7597 61.6169 38.746C61.4447 39.1775 61.3107 39.6315 61.158 40.0893C61.0542 40.4009 60.7419 41.1973 60.7156 41.5135C60.5387 41.3839 59.8692 39.1698 59.7575 38.8026C59.471 37.8605 59.1384 37.0094 58.8241 36.0671C58.5079 35.1192 58.2231 34.2632 57.9069 33.3154L56.9812 30.5078H51.8304C51.7437 30.8796 51.5693 31.3232 51.4523 31.6745L47.1384 44.4822C46.878 45.2637 46.6196 46.0378 46.3658 46.7992L45.585 49.1724Z" fill="#fff"/>
<path fill-rule="evenodd" clip-rule="evenodd" d="M30.1327 31.1497C30.1467 31.7798 30.841 35.2153 30.841 35.9124C31.0765 35.8928 31.764 35.5622 32.0091 35.471C33.3246 34.982 34.8741 34.6895 36.3781 34.6895C37.3435 34.6895 38.6316 34.9231 38.6316 35.848C38.6316 36.8056 36.779 37.1422 35.8984 37.3637C35.2823 37.5187 34.7563 37.6203 34.189 37.7788C31.0874 38.6456 29.1025 40.0498 29.1025 43.5069C29.1025 43.9684 29.2016 44.6742 29.2939 45.0534C29.8909 47.5085 31.515 48.7168 34.0227 49.2726C36.6111 49.8463 39.9145 49.6889 42.4785 49.0901C42.7889 49.0176 43.4426 48.8523 43.718 48.7201L43.3596 46.3753C43.2843 45.9615 43.2368 45.6528 43.1668 45.2164C43.0977 44.7852 43.0098 44.4826 43.0098 44.0218L41.7739 44.3955C41.3279 44.5168 40.8738 44.6056 40.389 44.6845C38.993 44.9116 36.4736 45.2056 35.0816 44.7385C34.8449 44.6591 34.6135 44.5625 34.4335 44.421C34.2718 44.2941 34.0602 44.0181 34.0602 43.7644C34.0602 40.8797 43.5893 43.3928 43.5893 36.0411C43.5893 33.9533 42.7861 32.4428 41.5848 31.5443C39.5127 29.9945 36.1731 29.8379 33.6202 30.195C33.2244 30.2503 32.7372 30.3423 32.3726 30.4282C31.971 30.5228 31.5679 30.6382 31.2186 30.7549L30.1327 31.1497Z" fill="#fff"/>
<path fill-rule="evenodd" clip-rule="evenodd" d="M15.5166 55.5441C15.5166 57.0395 16.6232 57.9898 18.0276 57.9898H18.0527H18.1501C18.9053 57.9892 21.6976 57.9663 21.6976 57.4106V51.1032C21.6976 50.9549 21.6528 50.9102 21.5044 50.9102H19.8304V56.1877C18.9201 56.1877 17.3194 56.6787 17.3194 55.158V50.9102H15.5166V55.5441Z" fill="#fff"/>
<path fill-rule="evenodd" clip-rule="evenodd" d="M23.3076 57.8611H25.1104V55.0936H27.6215V57.8611H29.4243V50.9102H27.6215V53.5489H25.1104V50.9102H23.3076V57.8611Z" fill="#fff"/>
<path fill-rule="evenodd" clip-rule="evenodd" d="M31.0342 51.1032V54.9649C31.0342 56.7178 31.7943 57.9898 33.6096 57.9898H34.6038C35.5207 57.9834 35.8042 57.9323 37.2152 57.6037V50.9102H35.4124V55.9947C35.4124 56.3732 34.1621 56.2521 33.8671 56.2521C33.294 56.2521 32.9013 55.8596 32.9013 55.2867V50.9102H31.2273C31.079 50.9102 31.0342 50.9549 31.0342 51.1032Z" fill="#fff"/>
<path fill-rule="evenodd" clip-rule="evenodd" d="M7.66211 57.8611H9.5937L11.3965 53.2915C11.4154 53.519 12.4756 56.1812 12.6435 56.6789C12.7794 57.0818 12.9791 57.4688 13.0705 57.8611H15.002L12.2979 50.9102H10.3663C10.2978 51.204 10.1557 51.5018 10.0535 51.756L7.99326 56.9693C7.87605 57.2624 7.73423 57.5517 7.66211 57.8611Z" fill="#fff"/>
<path fill-rule="evenodd" clip-rule="evenodd" d="M40.7559 54.256L42.7152 56.6739C43.9629 58.2615 43.3255 57.8602 45.9067 57.8602C45.8584 57.6794 45.7173 57.5362 45.5998 57.3947L43.0737 54.1916L45.02 51.7607C45.1702 51.5779 45.5996 51.0949 45.6491 50.9092C45.0668 50.9092 44.1246 50.8511 43.5867 50.9073C43.2486 50.9425 42.8954 51.5362 42.5671 51.9475L41.6488 53.0891C41.3361 53.4815 41.0335 53.8416 40.7559 54.2561V54.256Z" fill="#fff"/>
<path fill-rule="evenodd" clip-rule="evenodd" d="M1.93164 54.2569L4.7646 57.8611H7.01809C6.94063 57.5712 4.3551 54.3707 4.18512 54.2569C4.38975 53.9515 4.6072 53.7037 4.82857 53.4198C5.14995 53.0076 6.68274 51.2015 6.76055 50.9102H4.50705C4.09518 51.525 2.02521 53.9066 1.93164 54.2569Z" fill="#fff"/>
<path fill-rule="evenodd" clip-rule="evenodd" d="M38.8887 57.8611H40.6915V50.9102H38.8887V57.8611Z" fill="#fff"/>
<path fill-rule="evenodd" clip-rule="evenodd" d="M1.80287 57.7331V51.0273C1.5277 51.2097 1.03149 51.8892 0.816433 52.3053C0.544927 52.8306 0.341303 53.3831 0.239447 54.0397C0.0503176 55.259 0.381747 56.9998 1.01573 57.7381L1.80287 57.7331Z" fill="#fff"/>
<path fill-rule="evenodd" clip-rule="evenodd" d="M1.8028 57.7327L1.01565 57.7376C0.381669 56.9994 0.0502397 55.2585 0.239369 54.0392C0.341225 53.3826 0.544849 52.8302 0.816355 52.3048C1.03141 51.8888 1.52762 51.2093 1.8028 51.0269L0 50.9102V57.8611C0.300473 57.8611 0.600968 57.8607 0.90142 57.8611L1.60658 57.855C1.83979 57.7881 1.65625 57.9181 1.8028 57.7327Z" fill="#fff"/>
<path fill-rule="evenodd" clip-rule="evenodd" d="M4.89327 37.651H8.62764C8.70584 36.7116 9.15204 35.3082 9.50708 34.6041C10.2945 33.0427 10.9318 32.303 12.2459 31.4207C14.4798 29.9208 17.6334 29.7882 20.2124 30.3185C24.4546 31.1907 26.3336 34.8288 26.3336 39.3243C26.3336 42.5021 25.9948 44.6137 24.0898 46.9928C23.7831 47.3758 23.3095 47.7581 22.9037 48.0598C22.4125 48.425 22.1814 48.5331 21.775 48.7231C21.6817 48.7668 21.5791 48.8148 21.4619 48.8712C19.2771 49.9236 15.7961 49.7984 13.4956 49.0038C13.3212 48.9436 13.2022 48.8879 13.0721 48.8271C12.9847 48.7863 12.8922 48.7431 12.7747 48.6946C10.7536 47.861 9.33516 45.5245 8.84571 43.3541L8.56327 41.6413H4.89327V49.1715H0V30.4426H4.70012C4.84848 30.4426 4.89327 30.4874 4.89327 30.6357V37.651ZM21.4787 39.9943C21.6157 37.2718 21.0745 35.1051 17.8873 34.95C14.7002 34.795 13.5224 36.8591 13.6929 39.9943C13.6955 40.041 13.698 40.0874 13.7005 40.1335C13.8654 43.1803 13.9556 44.847 17.5858 44.8741C21.2323 44.9012 21.3397 42.7623 21.4744 40.0797C21.4758 40.0513 21.4772 40.0228 21.4787 39.9943Z" fill="#fff"/>
<path fill-rule="evenodd" clip-rule="evenodd" d="M76.7113 42.1911L76.5547 39.9663C76.5547 37.0183 77.182 33.7821 79.4965 31.8369C79.9447 31.4602 80.2649 31.2232 80.8036 30.9553C82.617 30.0535 83.8802 30.054 85.7912 30.0547C85.8452 30.0547 85.8998 30.0548 85.955 30.0548C87.3405 30.0548 89.209 30.6682 90.3156 31.4882C92.8651 33.3775 93.4312 37.293 92.9932 40.2439L92.7154 41.6397H81.6411C81.6411 42.3459 81.7072 42.7984 82.0648 43.3401C82.3856 43.8262 82.4876 43.895 82.9319 44.1949C82.9475 44.2054 82.9635 44.2162 82.98 44.2273C84.3922 45.1814 86.2054 45.0132 87.8469 44.861C87.8797 44.858 87.9125 44.855 87.9452 44.8519C89.3357 44.7234 90.2931 44.3989 91.5231 43.9783C91.6144 43.9471 91.6734 43.9208 91.7166 43.9369C91.8134 43.9729 91.8312 44.2215 91.9535 45.1044C91.9796 45.2925 92.0121 45.4701 92.0452 45.6516C92.0806 45.8451 92.1167 46.043 92.1468 46.2628L92.5223 48.5262C89.9688 49.751 84.4227 50.0332 81.6218 48.9317C80.3456 48.4299 80.0054 48.1978 79.1103 47.3876C77.6153 46.0343 77.0017 44.1658 76.7113 42.1911ZM89.3586 37.8827H81.5504C81.8996 32.4254 88.9067 33.1533 89.3586 37.8827Z" fill="#fff"/>
<path fill-rule="evenodd" clip-rule="evenodd" d="M96.9861 45.4154C96.1444 43.7328 95.8057 41.863 95.8057 39.8375C95.8057 36.8718 96.43 34.8394 98.1138 32.7481C98.769 31.9344 99.9521 31.2806 100.914 30.8485C102.68 30.0546 104.651 30.0547 106.53 30.0547H106.558C107.935 30.0547 110.987 30.5328 112.258 31.1153C112.291 31.1304 112.32 31.1407 112.346 31.1498C112.435 31.1805 112.481 31.1968 112.481 31.3419V50.5213C112.481 51.5836 112.071 52.9678 111.705 53.6713C109.444 58.0194 104.024 58.1636 99.6513 57.3611C98.8168 57.2079 97.513 56.8954 96.9002 56.5712L97.6728 52.0017L98.9097 52.4387C100.838 52.9761 105.155 53.7547 106.769 52.1477C107.562 51.3577 107.588 50.7435 107.588 49.2341C107.305 49.2577 107.12 49.307 106.911 49.3628C106.479 49.4779 105.944 49.6203 104.24 49.6203C101.092 49.6203 98.3663 48.1749 96.9861 45.4154ZM107.352 35.7315C99.1567 31.8839 96.31 46.8786 107.352 45.0116V35.7315Z" fill="#fff"/>
<path fill-rule="evenodd" clip-rule="evenodd" d="M46.8655 51.8207C46.8138 51.5724 46.7629 51.3277 46.7442 51.1029C48.2304 50.7568 50.3632 50.3666 51.525 51.6659C51.9994 52.1964 52.0882 53.0193 52.0882 53.9992V57.4102C52.0882 57.648 51.6167 57.7352 51.2815 57.7972C51.2118 57.8101 51.1479 57.8219 51.0954 57.8338C50.6326 57.9383 50.2403 57.9769 49.8445 57.9895H48.6114C45.9197 57.9895 45.8234 55.0203 46.9613 54.1518C47.7247 53.5692 48.6897 53.5874 49.6864 53.6063C49.8639 53.6096 50.0424 53.613 50.221 53.613C50.221 53.5821 50.2213 53.5508 50.2216 53.5192C50.2259 53.0246 50.231 52.4545 49.1908 52.4545C48.1691 52.4545 48.0661 52.4846 47.679 52.5976C47.5243 52.6428 47.3241 52.7012 47.0017 52.7763C47.0017 52.4757 46.933 52.1451 46.8655 51.8207ZM50.0599 55.1282L50.0882 56.6278C47.3302 56.8012 47.3858 54.8991 50.0599 55.1282Z" fill="#fff"/>
</svg>
